<svg xmlns="http://www.w3.org/2000/svg" xmlns:xlink="http://www.w3.org/1999/xlink" width="500" zoomAndPan="magnify" viewBox="0 0 375 374.999991" height="500" preserveAspectRatio="xMidYMid meet" version="1.0"><defs><clipPath id="539c422f7d"><path d="M 4.265625 18.3125 L 371.015625 18.3125 L 371.015625 356.5625 L 4.265625 356.5625 Z M 4.265625 18.3125 " clip-rule="nonzero"/></clipPath></defs><path fill="#100f0d" d="M 116.191406 192.425781 C 134.84375 205.449219 150.238281 221.730469 164.523438 239.238281 C 166.058594 241.125 169.308594 241.613281 171.761719 242.738281 L 173.632812 242.757812 L 172.722656 240.980469 C 160.488281 223.722656 147.753906 206.898438 131.285156 193.242188 C 125.917969 188.800781 126.070312 187.183594 132.464844 184.824219 C 169.234375 171.257812 206.027344 171.316406 242.777344 184.875 C 248.863281 187.125 249.113281 188.910156 244.101562 193.007812 C 227.5 206.585938 214.867188 223.582031 202.460938 240.777344 L 201.238281 242.757812 L 203.390625 242.757812 C 205.757812 241.695312 208.910156 241.273438 210.375 239.472656 C 224.769531 221.8125 240.207031 205.289062 259.195312 192.402344 C 261.722656 190.683594 262.234375 188.671875 260.921875 185.777344 C 252.125 166.476562 243.191406 147.179688 229.539062 130.75 C 223.589844 123.601562 216.660156 116.917969 209.078125 111.574219 C 195.207031 101.800781 180.324219 101.976562 166.140625 111.347656 C 160.511719 115.066406 155.261719 119.65625 150.675781 124.628906 C 134.210938 142.519531 123.886719 164.167969 114.246094 186.140625 C 113.554688 187.714844 114.71875 191.390625 116.191406 192.425781 " fill-opacity="1" fill-rule="nonzero"/><g clip-path="url(#539c422f7d)"><path fill="#100f0d" d="M 352.863281 319.941406 C 352.863281 329.949219 344.722656 338.070312 334.699219 338.070312 L 269.710938 338.070312 C 269.988281 337.75 270.175781 337.347656 270.175781 336.894531 L 270.175781 329.628906 C 270.175781 328.636719 269.367188 327.828125 268.371094 327.828125 L 257.238281 327.828125 L 257.238281 248.574219 C 257.238281 246.832031 255.789062 245.410156 254.042969 245.410156 L 125.414062 245.410156 C 123.667969 245.410156 122.234375 246.832031 122.234375 248.574219 L 122.234375 327.828125 L 110.925781 327.828125 C 109.921875 327.828125 109.121094 328.636719 109.121094 329.628906 L 109.121094 336.894531 C 109.121094 337.347656 109.308594 337.75 109.585938 338.070312 L 40.578125 338.070312 C 30.554688 338.070312 22.414062 329.949219 22.414062 319.941406 L 22.414062 93.855469 L 352.863281 93.855469 Z M 200.609375 306.035156 L 189.730469 300.316406 L 178.867188 306.035156 L 180.9375 293.9375 L 172.140625 285.382812 L 184.300781 283.625 L 189.730469 272.625 L 195.15625 283.625 L 207.316406 285.382812 L 198.519531 293.9375 Z M 51.472656 51.378906 C 55.566406 51.378906 58.878906 54.6875 58.878906 58.777344 C 58.878906 62.878906 55.566406 66.175781 51.472656 66.175781 C 47.367188 66.175781 44.066406 62.878906 44.066406 58.777344 C 44.066406 54.6875 47.367188 51.378906 51.472656 51.378906 Z M 79.316406 51.378906 C 83.386719 51.378906 86.722656 54.6875 86.722656 58.777344 C 86.722656 62.878906 83.386719 66.175781 79.316406 66.175781 C 75.21875 66.175781 71.875 62.878906 71.875 58.777344 C 71.875 54.6875 75.21875 51.378906 79.316406 51.378906 Z M 105.640625 51.378906 C 109.710938 51.378906 113.050781 54.6875 113.050781 58.777344 C 113.050781 62.878906 109.710938 66.175781 105.640625 66.175781 C 101.546875 66.175781 98.203125 62.878906 98.203125 58.777344 C 98.203125 54.6875 101.546875 51.378906 105.640625 51.378906 Z M 282.046875 54.535156 L 328.058594 54.535156 L 328.058594 63.027344 L 282.046875 63.027344 Z M 334.699219 18.886719 L 40.578125 18.886719 C 20.570312 18.886719 4.265625 35.164062 4.265625 55.148438 L 4.265625 319.941406 C 4.265625 339.921875 20.570312 356.203125 40.578125 356.203125 L 334.699219 356.203125 C 354.707031 356.203125 371.015625 339.921875 371.015625 319.941406 L 371.015625 55.148438 C 371.015625 35.164062 354.707031 18.886719 334.699219 18.886719 " fill-opacity="1" fill-rule="nonzero"/></g><path fill="#100f0d" d="M 309.730469 311.261719 C 302.769531 292.101562 296.238281 272.734375 288.03125 254.105469 C 280.058594 236.023438 267.890625 220.734375 251.265625 209.371094 C 247.851562 207.03125 245.355469 206.542969 242.347656 209.84375 C 233.28125 219.777344 224.035156 229.53125 214.902344 239.398438 L 212.414062 242.101562 L 213.601562 242.101562 C 225.519531 242.101562 236.753906 242.101562 247.976562 242.109375 C 258.644531 242.109375 260.550781 244.003906 260.550781 254.574219 C 260.558594 265.730469 260.558594 276.875 260.558594 287.574219 L 285.941406 282.195312 C 276.476562 285.863281 267.359375 289.957031 262.976562 299.820312 C 271.085938 299.820312 278.785156 299.820312 286.488281 299.820312 C 270.730469 301.648438 266.617188 302.792969 262.894531 306.910156 C 267.570312 309.761719 272.382812 312.699219 277.203125 315.636719 L 260.972656 311.386719 C 260.972656 316.167969 260.972656 320.292969 260.972656 324.375 C 272.625 325.199219 272.625 325.199219 274.253906 336.894531 C 284.601562 332.851562 294.527344 329.5625 303.910156 325.125 C 310.101562 322.195312 311.898438 317.21875 309.730469 311.261719 " fill-opacity="1" fill-rule="nonzero"/><path fill="#100f0d" d="M 163.117188 241.519531 L 161.996094 240.257812 C 152.027344 229.960938 141.996094 219.71875 132.113281 209.347656 C 129.542969 206.644531 127.46875 206.980469 124.554688 208.910156 C 110.867188 217.992188 100.570312 230.097656 92.277344 244.0625 C 80.148438 264.492188 72.800781 286.875 65.75 309.367188 C 63.253906 317.304688 64.9375 321.96875 72.261719 325.984375 C 82.5 331.605469 93.574219 334.738281 105.164062 336.050781 C 107.386719 324.6875 104.941406 325.511719 118.578125 324.164062 C 118.578125 319.703125 118.578125 315.207031 118.578125 309.972656 C 111.71875 312.304688 105.289062 314.5 98.859375 316.691406 L 112.722656 306.691406 C 105.792969 301.394531 97.367188 300.433594 88.570312 299.855469 C 96.355469 299.855469 104.140625 299.855469 112.140625 299.855469 C 107.539062 289.835938 98.371094 285.695312 88.964844 281.714844 C 99.734375 282.167969 109.636719 285.082031 118.890625 292.085938 C 118.890625 278.152344 118.863281 265.441406 118.898438 252.722656 C 118.914062 244.710938 121.445312 242.152344 129.457031 242.117188 C 139.925781 242.066406 150.390625 242.101562 160.855469 242.101562 L 163.453125 242.058594 L 163.117188 241.519531 " fill-opacity="1" fill-rule="nonzero"/></svg>