<svg xmlns="http://www.w3.org/2000/svg" xmlns:xlink="http://www.w3.org/1999/xlink" width="500" zoomAndPan="magnify" viewBox="0 0 375 374.999991" height="500" preserveAspectRatio="xMidYMid meet" version="1.0"><defs><clipPath id="ec2e76ff50"><path d="M 226 147 L 368.296875 147 L 368.296875 284 L 226 284 Z M 226 147 " clip-rule="nonzero"/></clipPath><clipPath id="353409cb14"><path d="M 6.796875 147 L 323 147 L 323 375 L 6.796875 375 Z M 6.796875 147 " clip-rule="nonzero"/></clipPath></defs><path fill="#000000" d="M 176.453125 219.957031 C 176.453125 232.570312 166.226562 242.792969 153.609375 242.792969 C 140.992188 242.792969 130.765625 232.570312 130.765625 219.957031 C 130.765625 207.34375 140.992188 197.117188 153.609375 197.117188 C 166.226562 197.117188 176.453125 207.34375 176.453125 219.957031 " fill-opacity="1" fill-rule="nonzero"/><path fill="#000000" d="M 127.726562 192.183594 C 127.414062 191.558594 127.097656 190.886719 126.757812 190.175781 C 126.4375 189.460938 126.105469 188.707031 125.78125 187.910156 C 125.109375 186.324219 124.453125 184.574219 123.824219 182.703125 C 123.214844 180.824219 122.613281 178.824219 122.121094 176.722656 C 121.996094 176.195312 121.859375 175.667969 121.746094 175.132812 C 121.640625 174.59375 121.53125 174.050781 121.421875 173.507812 C 121.1875 172.417969 121.039062 171.300781 120.855469 170.179688 C 120.785156 169.617188 120.710938 169.050781 120.640625 168.480469 C 120.574219 167.914062 120.488281 167.347656 120.453125 166.769531 C 120.433594 166.460938 120.40625 166.144531 120.382812 165.835938 C 118.335938 167.003906 116.824219 168.042969 115.773438 168.835938 L 115.425781 168.476562 C 115.382812 168.550781 115.335938 168.625 115.296875 168.703125 C 115.242188 168.800781 114.835938 169.5625 114.835938 169.5625 L 114.320312 170.039062 L 114.09375 170.257812 C 115.238281 181.109375 118.246094 195.964844 126.09375 204.6875 C 126.835938 204.007812 127.648438 203.390625 128.472656 202.804688 C 128.929688 202.519531 129.367188 202.214844 129.832031 201.949219 C 130.300781 201.699219 130.746094 201.414062 131.226562 201.195312 C 132.160156 200.726562 133.105469 200.328125 134.03125 199.992188 C 134.5 199.832031 134.953125 199.65625 135.40625 199.527344 C 135.863281 199.398438 136.304688 199.273438 136.742188 199.148438 C 137.613281 198.953125 138.433594 198.738281 139.207031 198.625 C 139.585938 198.558594 139.957031 198.496094 140.304688 198.433594 C 140.65625 198.394531 140.988281 198.351562 141.300781 198.3125 L 141.378906 198.304688 C 144.992188 196.253906 149.164062 195.082031 153.609375 195.082031 C 154.015625 195.082031 154.421875 195.089844 154.824219 195.109375 C 155.378906 195.074219 156.027344 195.09375 156.769531 195.101562 C 157.601562 195.085938 158.535156 195.207031 159.5625 195.296875 C 160.578125 195.453125 161.695312 195.59375 162.839844 195.914062 C 163.128906 195.988281 163.421875 196.058594 163.714844 196.132812 C 164.007812 196.222656 164.300781 196.316406 164.597656 196.410156 C 164.894531 196.507812 165.195312 196.605469 165.5 196.703125 C 165.792969 196.804688 166.074219 196.929688 166.363281 197.046875 C 168.464844 194.050781 182.570312 173.050781 180.332031 152.65625 C 176.664062 152.773438 172.992188 152.96875 169.363281 153.25 L 168.878906 153.289062 C 168.199219 153.34375 167.507812 153.398438 166.828125 153.460938 L 166.664062 153.472656 C 166.085938 153.527344 165.5 153.582031 164.917969 153.640625 C 144.460938 155.660156 131.328125 160.285156 123.515625 164.167969 C 123.601562 166.054688 123.785156 167.9375 123.972656 169.789062 C 124.253906 171.960938 124.539062 174.09375 124.929688 176.148438 C 125.296875 178.207031 125.734375 180.183594 126.167969 182.058594 C 126.402344 182.992188 126.613281 183.90625 126.851562 184.78125 C 126.964844 185.222656 127.074219 185.652344 127.1875 186.078125 C 127.304688 186.5 127.421875 186.914062 127.535156 187.320312 C 128.003906 188.9375 128.449219 190.421875 128.871094 191.734375 C 129.304688 193.039062 129.683594 194.183594 130.015625 195.117188 C 130.351562 196.050781 130.609375 196.789062 130.804688 197.289062 C 130.992188 197.785156 131.097656 198.054688 131.097656 198.054688 C 131.097656 198.054688 130.425781 197.117188 129.429688 195.378906 C 128.933594 194.503906 128.335938 193.441406 127.726562 192.183594 " fill-opacity="1" fill-rule="nonzero"/><path fill="#000000" d="M 172.75 310.003906 C 172.605469 310.484375 172.066406 310.714844 171.609375 310.511719 C 171.003906 310.246094 170.082031 309.933594 168.785156 309.753906 C 165.445312 309.285156 162.050781 310.074219 159.164062 311.820312 C 148.996094 317.976562 114.632812 338.699219 87.554688 354.046875 C 81.015625 357.835938 75.625 360.828125 71.179688 363.191406 L 172.652344 290.984375 C 170.714844 290.292969 168.765625 289.765625 166.808594 289.429688 C 166.363281 289.351562 165.917969 289.28125 165.472656 289.222656 C 159.863281 288.457031 154.703125 287.207031 150.0625 285.730469 C 149.191406 288.363281 147.558594 290.703125 145.40625 292.492188 C 136.253906 300.082031 105.417969 325.757812 82.046875 346.308594 C 73.433594 353.734375 67.375 359.304688 63.117188 363.457031 C 58.042969 368.289062 54.691406 371.828125 54.023438 373.320312 C 53.179688 374.480469 53.066406 374.882812 53.066406 374.882812 C 53.066406 374.882812 53.484375 374.910156 54.859375 374.492188 C 56.488281 374.347656 60.929688 372.34375 67.15625 369.132812 C 72.476562 366.46875 79.722656 362.570312 89.5625 356.867188 C 116.636719 341.519531 151.003906 320.796875 161.175781 314.640625 C 164.058594 312.894531 167.453125 312.109375 170.792969 312.574219 C 172.085938 312.753906 173.011719 313.066406 173.617188 313.332031 C 174.078125 313.535156 174.617188 313.289062 174.769531 312.800781 C 176.457031 307.324219 181.117188 302.363281 185.878906 298.488281 C 184.875 297.734375 183.898438 297.042969 182.96875 296.414062 C 178.523438 300.179688 174.328125 304.867188 172.75 310.003906 " fill-opacity="1" fill-rule="nonzero"/><path fill="#000000" d="M 157.699219 247.640625 C 153.050781 248.621094 148.433594 249.121094 143.941406 249.121094 C 143.828125 249.121094 143.714844 249.117188 143.601562 249.117188 L 155.019531 257.242188 C 155.460938 254.277344 156.511719 250.859375 157.699219 247.640625 " fill-opacity="1" fill-rule="nonzero"/><path fill="#000000" d="M 160.34375 270.878906 C 161.960938 270.878906 163.269531 269.59375 163.269531 268.011719 L 163.269531 264.195312 C 163.269531 262.613281 161.960938 261.332031 160.34375 261.332031 C 158.734375 261.332031 157.425781 262.613281 157.425781 264.195312 L 157.425781 268.011719 C 157.425781 269.59375 158.734375 270.878906 160.34375 270.878906 " fill-opacity="1" fill-rule="nonzero"/><path fill="#000000" d="M 212.542969 261.332031 C 210.929688 261.332031 209.621094 262.613281 209.621094 264.195312 L 209.621094 268.011719 C 209.621094 269.59375 210.929688 270.878906 212.542969 270.878906 C 214.160156 270.878906 215.464844 269.59375 215.464844 268.011719 L 215.464844 264.195312 C 215.464844 262.613281 214.160156 261.332031 212.542969 261.332031 " fill-opacity="1" fill-rule="nonzero"/><g clip-path="url(#ec2e76ff50)"><path fill="#000000" d="M 362.355469 158.84375 C 360.875 159.898438 358.816406 159.550781 357.757812 158.066406 C 356.699219 156.582031 357.046875 154.523438 358.53125 153.46875 C 360.015625 152.414062 362.074219 152.757812 363.132812 154.242188 C 364.191406 155.726562 363.84375 157.785156 362.355469 158.84375 Z M 302.039062 221 C 302.183594 221.3125 302.347656 221.613281 302.503906 221.917969 L 303.015625 222.808594 C 303.371094 223.390625 303.75 223.960938 304.15625 224.507812 C 304.359375 224.78125 304.585938 225.035156 304.792969 225.304688 C 304.996094 225.582031 305.238281 225.820312 305.460938 226.082031 C 305.679688 226.339844 305.925781 226.574219 306.164062 226.816406 C 306.402344 227.0625 306.648438 227.300781 306.90625 227.519531 C 307.164062 227.742188 307.398438 227.988281 307.671875 228.195312 L 308.460938 228.84375 L 308.628906 228.980469 L 308.679688 229.175781 C 308.914062 230.121094 309.105469 231.035156 309.273438 231.972656 C 309.441406 232.90625 309.574219 233.84375 309.6875 234.785156 C 309.75 235.253906 309.789062 235.726562 309.839844 236.199219 C 309.894531 236.667969 309.917969 237.140625 309.945312 237.613281 C 310.007812 238.558594 310.015625 239.511719 310.035156 240.457031 L 309.992188 241.878906 C 309.988281 242.351562 309.929688 242.824219 309.902344 243.300781 C 309.871094 243.773438 309.832031 244.246094 309.757812 244.714844 L 309.554688 246.121094 L 309.269531 247.515625 C 309.1875 247.980469 309.03125 248.433594 308.910156 248.890625 C 308.773438 249.34375 308.65625 249.796875 308.46875 250.234375 L 307.941406 251.546875 L 308.261719 250.171875 C 308.382812 249.722656 308.441406 249.257812 308.519531 248.800781 C 308.589844 248.335938 308.691406 247.886719 308.722656 247.417969 L 308.871094 246.035156 L 308.949219 244.644531 C 308.984375 244.183594 308.984375 243.71875 308.992188 243.253906 C 308.992188 242.792969 309.019531 242.332031 308.996094 241.867188 L 308.953125 240.476562 C 308.902344 239.554688 308.859375 238.625 308.761719 237.703125 C 308.722656 237.242188 308.671875 236.78125 308.617188 236.324219 C 308.566406 235.863281 308.523438 235.402344 308.453125 234.941406 C 308.332031 234.019531 308.1875 233.109375 308.019531 232.195312 C 307.875 231.347656 307.707031 230.496094 307.515625 229.671875 L 306.871094 229.125 C 306.589844 228.90625 306.339844 228.640625 306.078125 228.398438 C 305.8125 228.152344 305.566406 227.890625 305.328125 227.625 C 305.082031 227.363281 304.835938 227.101562 304.609375 226.820312 C 304.386719 226.539062 304.140625 226.273438 303.9375 225.980469 C 303.726562 225.6875 303.511719 225.402344 303.316406 225.101562 C 302.921875 224.5 302.554688 223.882812 302.222656 223.25 C 301.894531 222.617188 301.609375 221.957031 301.351562 221.292969 C 301.105469 220.625 300.882812 219.949219 300.714844 219.257812 C 300.542969 218.570312 300.394531 217.875 300.308594 217.175781 C 300.203125 216.476562 300.164062 215.773438 300.132812 215.074219 C 300.269531 215.761719 300.421875 216.445312 300.609375 217.117188 C 300.785156 217.785156 301 218.449219 301.238281 219.097656 C 301.34375 219.425781 301.496094 219.738281 301.617188 220.058594 C 301.742188 220.378906 301.898438 220.6875 302.039062 221 Z M 365.675781 149.859375 L 355.984375 147.828125 C 354.777344 147.574219 353.589844 148.347656 353.351562 149.5625 C 352.816406 152.246094 351 156.824219 344.875 160.363281 L 332.671875 169.050781 C 331.441406 168.550781 329.992188 168.667969 328.828125 169.496094 L 294.917969 193.625 L 295.332031 194.210938 C 294.457031 192.984375 292.757812 192.699219 291.53125 193.570312 C 291.382812 193.675781 291.25 193.792969 291.128906 193.921875 C 286.886719 192.847656 279.296875 189.644531 276.066406 180.253906 C 276.066406 180.253906 269.535156 175.921875 261.941406 174.003906 C 261.632812 176.320312 261.234375 178.769531 260.726562 181.273438 C 266.851562 185.5625 273.707031 191.945312 277.289062 200.574219 C 278.058594 201.65625 277.753906 203.167969 276.625 203.871094 C 269.023438 208.59375 260.171875 212.527344 252.402344 215.523438 C 253.824219 224.191406 251.640625 231.023438 246.175781 235.042969 L 247.238281 236.773438 C 247.40625 237.042969 247.546875 237.320312 247.671875 237.601562 L 279.632812 214.859375 L 282.882812 219.429688 C 270.757812 230.078125 260.105469 244.273438 256 250.011719 C 256 250.011719 248.722656 244.914062 240.375 248.539062 L 240.378906 248.53125 C 240.378906 248.53125 240.316406 248.558594 240.214844 248.609375 C 238.894531 249.203125 237.542969 250.011719 236.195312 251.101562 C 233.507812 253.089844 230.378906 256.167969 229.59375 260.09375 C 229.566406 260.222656 229.535156 260.351562 229.511719 260.484375 C 229.472656 260.652344 229.441406 260.820312 229.414062 260.988281 C 229.371094 261.230469 229.339844 261.476562 229.316406 261.730469 L 229.296875 261.875 C 229.238281 262.558594 229.234375 263.28125 229.292969 264.046875 C 229.574219 266.988281 230.960938 269.378906 232.472656 271.171875 C 235.171875 273.957031 239.054688 273.941406 239.054688 273.941406 L 234.519531 276.132812 L 234.515625 276.132812 C 232 277.34375 229.175781 278.5625 226.074219 279.699219 C 226.34375 280.195312 226.472656 280.761719 226.429688 281.335938 C 226.398438 281.710938 226.394531 282.296875 226.503906 283.082031 C 235.144531 280.101562 241.769531 276.378906 245.839844 273.75 C 246.976562 273.015625 246.378906 271.246094 245.035156 271.363281 C 239.800781 271.8125 232.660156 271.117188 232.554688 264.007812 C 232.472656 258.566406 236.792969 254.671875 241.277344 252.101562 C 246.351562 249.1875 252.8125 250.632812 256.207031 255.402344 C 256.207031 255.402344 271.070312 233.339844 287.902344 219.707031 C 288.9375 218.871094 290.460938 219.078125 291.230469 220.160156 C 305.65625 232.980469 306.441406 255.875 306.441406 255.875 C 314.988281 247.144531 310.035156 227.96875 310.035156 227.96875 C 302.011719 221.679688 301.65625 213.175781 302.078125 208.917969 C 302.171875 208.871094 302.265625 208.828125 302.347656 208.765625 C 303.574219 207.894531 303.863281 206.191406 302.992188 204.964844 L 303.574219 205.785156 L 337.484375 181.652344 C 338.644531 180.828125 339.230469 179.496094 339.164062 178.167969 L 351.367188 169.480469 C 356.714844 164.859375 361.636719 164.640625 364.351562 165.015625 C 365.578125 165.183594 366.699219 164.320312 366.855469 163.09375 L 368.109375 153.277344 C 368.3125 151.679688 367.253906 150.191406 365.675781 149.859375 " fill-opacity="1" fill-rule="nonzero"/></g><g clip-path="url(#353409cb14)"><path fill="#000000" d="M 74.785156 217.175781 C 74.699219 217.878906 74.550781 218.570312 74.378906 219.257812 C 74.210938 219.949219 73.988281 220.625 73.742188 221.292969 C 73.484375 221.957031 73.199219 222.617188 72.871094 223.25 C 72.539062 223.882812 72.171875 224.5 71.777344 225.101562 C 71.582031 225.402344 71.367188 225.6875 71.15625 225.980469 C 70.953125 226.273438 70.707031 226.539062 70.484375 226.820312 C 70.257812 227.101562 70.011719 227.363281 69.765625 227.625 C 69.527344 227.890625 69.28125 228.152344 69.015625 228.398438 C 68.753906 228.640625 68.503906 228.90625 68.222656 229.125 L 67.578125 229.671875 C 67.386719 230.496094 67.21875 231.347656 67.074219 232.195312 C 66.90625 233.109375 66.761719 234.023438 66.640625 234.941406 C 66.570312 235.402344 66.527344 235.863281 66.476562 236.324219 C 66.421875 236.78125 66.371094 237.242188 66.328125 237.703125 C 66.230469 238.625 66.191406 239.554688 66.140625 240.476562 L 66.097656 241.867188 C 66.074219 242.332031 66.101562 242.792969 66.101562 243.253906 C 66.105469 243.71875 66.109375 244.183594 66.144531 244.644531 L 66.21875 246.035156 L 66.367188 247.417969 C 66.398438 247.886719 66.503906 248.335938 66.574219 248.800781 C 66.652344 249.257812 66.707031 249.722656 66.832031 250.171875 L 67.152344 251.546875 L 66.625 250.234375 C 66.4375 249.796875 66.320312 249.34375 66.183594 248.890625 C 66.0625 248.429688 65.90625 247.980469 65.824219 247.515625 L 65.539062 246.121094 L 65.335938 244.714844 C 65.261719 244.246094 65.222656 243.773438 65.191406 243.300781 C 65.164062 242.824219 65.105469 242.351562 65.101562 241.878906 L 65.058594 240.457031 C 65.078125 239.511719 65.085938 238.558594 65.148438 237.613281 C 65.171875 237.140625 65.199219 236.667969 65.253906 236.199219 C 65.304688 235.726562 65.339844 235.253906 65.40625 234.785156 C 65.519531 233.84375 65.652344 232.90625 65.820312 231.972656 C 65.988281 231.035156 66.179688 230.121094 66.414062 229.175781 L 66.464844 228.980469 L 66.632812 228.84375 L 67.421875 228.195312 C 67.695312 227.988281 67.929688 227.742188 68.1875 227.519531 C 68.445312 227.300781 68.691406 227.0625 68.929688 226.816406 C 69.167969 226.574219 69.414062 226.339844 69.632812 226.082031 C 69.855469 225.820312 70.097656 225.582031 70.300781 225.304688 C 70.507812 225.035156 70.734375 224.78125 70.933594 224.507812 C 71.34375 223.960938 71.722656 223.390625 72.078125 222.808594 L 72.589844 221.917969 C 72.746094 221.613281 72.910156 221.3125 73.054688 221 C 73.195312 220.6875 73.347656 220.378906 73.476562 220.058594 C 73.597656 219.738281 73.75 219.425781 73.855469 219.097656 C 74.09375 218.449219 74.308594 217.785156 74.484375 217.117188 C 74.671875 216.445312 74.820312 215.761719 74.960938 215.074219 C 74.929688 215.773438 74.890625 216.476562 74.785156 217.175781 Z M 17.335938 158.066406 C 16.277344 159.550781 14.21875 159.898438 12.738281 158.84375 C 11.25 157.785156 10.902344 155.726562 11.960938 154.242188 C 13.019531 152.757812 15.078125 152.414062 16.5625 153.46875 C 18.046875 154.523438 18.394531 156.582031 17.335938 158.066406 Z M 311.976562 363.457031 C 307.714844 359.304688 301.660156 353.734375 293.046875 346.308594 C 269.675781 325.757812 238.835938 300.082031 229.6875 292.492188 C 227.09375 290.339844 225.238281 287.390625 224.585938 284.082031 C 224.335938 282.800781 224.324219 281.824219 224.378906 281.167969 C 224.417969 280.664062 224.007812 280.234375 223.5 280.253906 C 218.550781 280.421875 213.234375 278.371094 208.511719 275.730469 C 207.457031 276.425781 206.195312 276.835938 204.835938 276.835938 C 203.8125 276.835938 202.84375 276.609375 201.980469 276.195312 C 200.765625 278.242188 198.519531 279.617188 195.957031 279.617188 C 194.351562 279.617188 192.871094 279.078125 191.691406 278.171875 C 190.597656 279.316406 189.121094 280.097656 187.46875 280.332031 L 303.910156 363.191406 C 299.46875 360.828125 294.074219 357.835938 287.539062 354.046875 C 260.460938 338.699219 226.097656 317.976562 215.925781 311.820312 C 213.042969 310.074219 209.648438 309.285156 206.308594 309.753906 C 205.011719 309.933594 204.089844 310.246094 203.484375 310.511719 C 203.023438 310.714844 202.488281 310.484375 202.34375 310.003906 C 199.707031 301.429688 189.78125 294.101562 183.582031 290.234375 C 179.164062 287.480469 174.296875 285.464844 169.164062 284.582031 C 168.699219 284.5 168.230469 284.425781 167.761719 284.363281 C 156.738281 282.859375 147.496094 279.46875 140.578125 276.132812 L 140.574219 276.132812 L 136.039062 273.941406 C 136.039062 273.941406 139.917969 273.957031 142.621094 271.171875 C 144.132812 269.378906 145.519531 266.988281 145.796875 264.046875 C 145.859375 263.28125 145.855469 262.558594 145.792969 261.875 L 145.777344 261.730469 C 145.753906 261.476562 145.722656 261.230469 145.679688 260.988281 C 145.652344 260.820312 145.621094 260.652344 145.582031 260.484375 C 145.558594 260.351562 145.527344 260.222656 145.5 260.09375 C 144.714844 256.167969 141.585938 253.089844 138.898438 251.101562 C 137.550781 250.011719 136.199219 249.203125 134.878906 248.609375 C 134.777344 248.558594 134.714844 248.53125 134.714844 248.53125 L 134.71875 248.539062 C 134.5 248.445312 134.285156 248.355469 134.066406 248.277344 C 132.425781 247.984375 131.027344 247.660156 129.894531 247.355469 C 129.828125 247.335938 129.765625 247.304688 129.699219 247.289062 C 123.65625 246.820312 119.09375 250.011719 119.09375 250.011719 C 114.988281 244.273438 104.335938 230.078125 92.210938 219.429688 L 95.460938 214.859375 L 125.835938 236.472656 L 126.710938 235.042969 C 121.078125 230.902344 118.933594 223.769531 120.628906 214.71875 C 113.378906 211.835938 105.402344 208.183594 98.46875 203.871094 C 97.339844 203.167969 97.035156 201.65625 97.804688 200.574219 C 101.015625 192.835938 106.867188 186.902344 112.453125 182.667969 C 111.851562 179.910156 111.390625 177.195312 111.03125 174.609375 C 104.382812 176.703125 99.027344 180.253906 99.027344 180.253906 C 95.796875 189.644531 88.207031 192.847656 83.964844 193.921875 C 83.84375 193.792969 83.710938 193.675781 83.5625 193.570312 C 82.335938 192.699219 80.636719 192.984375 79.761719 194.210938 L 80.175781 193.625 L 46.265625 169.496094 C 45.101562 168.667969 43.652344 168.550781 42.421875 169.050781 L 30.21875 160.363281 C 24.09375 156.824219 22.277344 152.246094 21.742188 149.558594 C 21.503906 148.347656 20.316406 147.574219 19.109375 147.828125 L 9.417969 149.859375 C 7.839844 150.191406 6.78125 151.679688 6.984375 153.277344 L 8.238281 163.09375 C 8.394531 164.320312 9.515625 165.183594 10.742188 165.015625 C 13.453125 164.640625 18.378906 164.859375 23.722656 169.480469 L 35.929688 178.167969 C 35.863281 179.496094 36.449219 180.828125 37.609375 181.652344 L 71.519531 205.785156 L 72.101562 204.964844 C 71.230469 206.191406 71.515625 207.894531 72.746094 208.765625 C 72.828125 208.828125 72.921875 208.871094 73.011719 208.917969 C 73.4375 213.175781 73.082031 221.679688 65.054688 227.96875 C 65.054688 227.96875 60.105469 247.144531 68.652344 255.875 C 68.652344 255.875 69.4375 232.980469 83.863281 220.160156 C 84.632812 219.078125 86.15625 218.871094 87.191406 219.707031 C 104.023438 233.339844 118.886719 255.402344 118.886719 255.402344 C 122.28125 250.632812 128.742188 249.1875 133.816406 252.101562 C 138.300781 254.671875 142.621094 258.566406 142.539062 264.007812 C 142.433594 271.117188 135.292969 271.8125 130.058594 271.363281 C 128.710938 271.246094 128.117188 273.015625 129.253906 273.75 C 135.707031 277.917969 148.578125 284.839844 165.75 287.183594 C 166.21875 287.25 166.6875 287.320312 167.15625 287.398438 C 172.289062 288.285156 177.15625 290.296875 181.578125 293.054688 C 187.769531 296.921875 197.679688 304.234375 200.324219 312.800781 C 200.476562 313.289062 201.015625 313.535156 201.476562 313.332031 C 202.082031 313.066406 203.007812 312.757812 204.300781 312.574219 C 207.640625 312.109375 211.035156 312.894531 213.917969 314.640625 C 224.089844 320.796875 258.457031 341.519531 285.53125 356.867188 C 295.371094 362.570312 302.617188 366.46875 307.9375 369.132812 C 314.164062 372.34375 318.605469 374.347656 320.234375 374.492188 C 321.609375 374.910156 322.023438 374.882812 322.023438 374.882812 C 322.023438 374.882812 321.914062 374.480469 321.070312 373.320312 C 320.402344 371.828125 317.050781 368.289062 311.976562 363.457031 " fill-opacity="1" fill-rule="nonzero"/></g><path fill="#000000" d="M 241.753906 216.710938 C 242.839844 234.273438 219.976562 234.519531 208.527344 233.550781 C 204.601562 233.222656 200.929688 231.507812 198.171875 228.75 C 190.871094 221.4375 214.214844 211.21875 219.535156 208.949219 C 229.128906 204.859375 240.921875 203.289062 241.753906 216.710938 Z M 187.6875 246.574219 C 187.289062 246.417969 186.867188 246.335938 186.445312 246.335938 C 186.023438 246.335938 185.601562 246.417969 185.203125 246.574219 C 167.414062 253.71875 178.136719 235.460938 183.710938 227.089844 C 184.355469 226.121094 185.402344 225.636719 186.445312 225.636719 C 187.488281 225.636719 188.535156 226.121094 189.175781 227.089844 C 194.753906 235.460938 205.476562 253.71875 187.6875 246.574219 Z M 189.78125 218.136719 C 189.886719 217.5625 190.027344 216.867188 190.242188 216.074219 C 190.453125 215.289062 190.710938 214.398438 191.070312 213.453125 C 191.238281 212.976562 191.441406 212.492188 191.648438 211.984375 C 191.863281 211.480469 192.101562 210.96875 192.359375 210.445312 C 192.878906 209.402344 193.480469 208.324219 194.179688 207.253906 C 194.894531 206.191406 195.679688 205.113281 196.585938 204.109375 C 197.464844 203.078125 198.480469 202.132812 199.523438 201.222656 C 200.601562 200.359375 201.710938 199.523438 202.902344 198.839844 C 203.195312 198.667969 203.488281 198.492188 203.78125 198.320312 C 204.082031 198.167969 204.382812 198.019531 204.683594 197.871094 C 204.984375 197.722656 205.277344 197.566406 205.582031 197.433594 C 205.886719 197.304688 206.191406 197.183594 206.488281 197.058594 C 206.792969 196.941406 207.085938 196.804688 207.386719 196.703125 C 207.695312 196.605469 207.992188 196.507812 208.292969 196.410156 C 208.589844 196.316406 208.882812 196.222656 209.171875 196.132812 C 209.46875 196.058594 209.761719 195.988281 210.050781 195.914062 C 211.195312 195.59375 212.308594 195.453125 213.328125 195.296875 C 214.355469 195.207031 215.285156 195.085938 216.125 195.101562 C 216.957031 195.089844 217.675781 195.066406 218.273438 195.125 C 219.460938 195.199219 220.132812 195.269531 220.132812 195.269531 C 220.132812 195.269531 219.457031 195.375 218.289062 195.519531 C 217.707031 195.570312 217.003906 195.738281 216.203125 195.859375 C 216.003906 195.890625 215.796875 195.929688 215.582031 195.964844 C 215.371094 196.003906 215.15625 196.0625 214.9375 196.113281 C 214.492188 196.210938 214.027344 196.3125 213.542969 196.421875 C 213.0625 196.546875 212.566406 196.699219 212.054688 196.839844 C 211.539062 196.972656 211.019531 197.15625 210.488281 197.335938 C 210.222656 197.429688 209.949219 197.523438 209.675781 197.613281 C 209.410156 197.722656 209.140625 197.835938 208.867188 197.949219 C 208.597656 198.0625 208.324219 198.175781 208.042969 198.285156 C 207.765625 198.398438 207.5 198.542969 207.222656 198.671875 C 206.949219 198.800781 206.671875 198.933594 206.390625 199.066406 C 206.117188 199.203125 205.851562 199.363281 205.574219 199.511719 C 205.300781 199.664062 205.027344 199.816406 204.75 199.96875 C 204.484375 200.140625 204.21875 200.304688 203.945312 200.476562 C 202.867188 201.144531 201.839844 201.925781 200.839844 202.738281 C 199.863281 203.578125 198.910156 204.449219 198.054688 205.390625 C 197.179688 206.308594 196.398438 207.285156 195.660156 208.25 C 194.945312 209.230469 194.269531 210.195312 193.6875 211.152344 C 193.113281 212.109375 192.582031 213.03125 192.136719 213.902344 C 191.6875 214.773438 191.300781 215.589844 190.96875 216.324219 C 190.652344 217.058594 190.371094 217.703125 190.167969 218.242188 C 189.960938 218.78125 189.796875 219.207031 189.695312 219.503906 C 189.597656 219.796875 189.542969 219.957031 189.542969 219.957031 C 189.542969 219.957031 189.570312 219.289062 189.78125 218.136719 Z M 231.585938 198.3125 C 231.898438 198.351562 232.234375 198.394531 232.585938 198.433594 C 232.933594 198.496094 233.300781 198.558594 233.683594 198.625 C 234.457031 198.738281 235.273438 198.953125 236.148438 199.148438 C 236.582031 199.273438 237.027344 199.398438 237.480469 199.527344 C 237.9375 199.65625 238.386719 199.832031 238.855469 199.992188 C 239.785156 200.328125 240.730469 200.726562 241.664062 201.195312 C 242.144531 201.414062 242.589844 201.699219 243.058594 201.949219 C 243.519531 202.214844 243.960938 202.519531 244.414062 202.804688 C 245.238281 203.390625 246.054688 204.007812 246.792969 204.6875 C 254.425781 196.207031 257.480469 181.9375 258.695312 171.175781 L 258.570312 171.1875 L 257.417969 170.03125 C 257.332031 169.949219 255.804688 168.519531 252.453125 166.511719 C 252.449219 166.597656 252.441406 166.6875 252.433594 166.769531 C 252.402344 167.347656 252.316406 167.914062 252.246094 168.480469 C 252.175781 169.050781 252.105469 169.617188 252.035156 170.179688 C 251.851562 171.300781 251.699219 172.417969 251.46875 173.507812 C 251.359375 174.050781 251.25 174.59375 251.140625 175.132812 C 251.03125 175.667969 250.890625 176.195312 250.769531 176.722656 C 250.277344 178.824219 249.671875 180.824219 249.066406 182.703125 C 248.433594 184.574219 247.78125 186.324219 247.109375 187.910156 C 246.785156 188.707031 246.453125 189.460938 246.128906 190.175781 C 245.789062 190.886719 245.476562 191.558594 245.164062 192.183594 C 244.550781 193.441406 243.953125 194.503906 243.460938 195.378906 C 242.464844 197.117188 241.792969 198.054688 241.792969 198.054688 C 241.792969 198.054688 241.894531 197.785156 242.085938 197.289062 C 242.28125 196.789062 242.535156 196.050781 242.875 195.117188 C 243.210938 194.183594 243.585938 193.039062 244.019531 191.734375 C 244.4375 190.421875 244.882812 188.9375 245.351562 187.320312 C 245.46875 186.914062 245.585938 186.5 245.703125 186.078125 C 245.8125 185.652344 245.925781 185.222656 246.039062 184.78125 C 246.273438 183.90625 246.488281 182.992188 246.71875 182.058594 C 247.15625 180.183594 247.59375 178.207031 247.957031 176.148438 C 248.351562 174.09375 248.636719 171.960938 248.917969 169.789062 C 249.085938 168.136719 249.25 166.464844 249.347656 164.78125 C 241.734375 160.832031 228.242188 155.753906 206.820312 153.636719 C 206.242188 153.582031 205.65625 153.527344 205.066406 153.472656 L 204.921875 153.460938 C 204.234375 153.398438 203.546875 153.34375 202.851562 153.285156 L 202.382812 153.25 C 197.304688 152.855469 192.140625 152.625 187.027344 152.558594 L 185.871094 152.578125 L 184.714844 152.558594 C 184.617188 152.558594 184.519531 152.558594 184.421875 152.5625 C 186.5625 173.589844 173.289062 194.214844 170.058594 198.878906 C 171.214844 199.558594 172.304688 200.375 173.367188 201.222656 C 174.40625 202.132812 175.425781 203.078125 176.304688 204.109375 C 177.210938 205.113281 177.992188 206.191406 178.707031 207.253906 C 179.410156 208.324219 180.011719 209.402344 180.527344 210.445312 C 180.789062 210.96875 181.027344 211.480469 181.242188 211.984375 C 181.445312 212.492188 181.648438 212.976562 181.820312 213.453125 C 182.179688 214.398438 182.433594 215.289062 182.648438 216.074219 C 182.863281 216.867188 183.003906 217.5625 183.109375 218.136719 C 183.320312 219.289062 183.347656 219.957031 183.347656 219.957031 C 183.347656 219.957031 183.292969 219.796875 183.195312 219.503906 C 183.09375 219.207031 182.925781 218.78125 182.722656 218.242188 C 182.515625 217.703125 182.238281 217.058594 181.917969 216.324219 C 181.585938 215.589844 181.203125 214.773438 180.753906 213.902344 C 180.308594 213.03125 179.773438 212.109375 179.199219 211.152344 C 178.621094 210.195312 177.945312 209.230469 177.230469 208.25 C 176.492188 207.285156 175.710938 206.308594 174.835938 205.390625 C 173.980469 204.449219 173.027344 203.578125 172.050781 202.738281 C 171.234375 202.078125 170.398438 201.4375 169.535156 200.859375 C 175.003906 205.425781 178.488281 212.292969 178.488281 219.957031 C 178.488281 225.917969 176.378906 231.394531 172.871094 235.683594 L 172.976562 235.585938 C 173.3125 235.28125 173.609375 235.007812 173.851562 234.789062 C 174.339844 234.34375 174.617188 234.085938 174.617188 234.085938 C 174.617188 234.085938 174.375 234.371094 173.941406 234.867188 C 173.722656 235.117188 173.460938 235.421875 173.160156 235.769531 C 172.867188 236.128906 172.484375 236.484375 172.097656 236.894531 C 171.691406 237.296875 171.289062 237.761719 170.792969 238.195312 C 170.308594 238.632812 169.8125 239.109375 169.273438 239.578125 C 168.71875 240.035156 168.152344 240.515625 167.5625 240.984375 C 166.957031 241.425781 166.351562 241.90625 165.71875 242.339844 C 165.074219 242.761719 164.449219 243.21875 163.792969 243.601562 C 163.511719 243.773438 163.234375 243.941406 162.953125 244.109375 C 161.449219 247.628906 158.25 255.648438 158.363281 260.191406 C 158.960938 259.90625 159.632812 259.738281 160.34375 259.738281 C 162.414062 259.738281 164.160156 261.101562 164.707031 262.960938 C 165.5625 262.117188 166.746094 261.59375 168.050781 261.59375 C 170.425781 261.59375 172.390625 263.328125 172.710938 265.570312 C 173.609375 264.21875 175.164062 263.316406 176.929688 263.316406 C 179.050781 263.316406 180.867188 264.609375 181.605469 266.433594 C 182.417969 264.601562 184.28125 263.316406 186.445312 263.316406 C 188.609375 263.316406 190.46875 264.601562 191.285156 266.433594 C 192.023438 264.609375 193.839844 263.316406 195.957031 263.316406 C 197.726562 263.316406 199.28125 264.21875 200.175781 265.570312 C 200.5 263.328125 202.464844 261.59375 204.835938 261.59375 C 206.140625 261.59375 207.328125 262.117188 208.179688 262.960938 C 208.726562 261.101562 210.472656 259.738281 212.542969 259.738281 C 213.253906 259.738281 213.925781 259.90625 214.527344 260.191406 C 214.636719 255.648438 211.441406 247.628906 209.933594 244.109375 C 209.65625 243.941406 209.378906 243.773438 209.097656 243.601562 C 208.4375 243.21875 207.816406 242.761719 207.171875 242.339844 C 206.539062 241.90625 205.933594 241.425781 205.324219 240.984375 C 204.734375 240.515625 204.167969 240.035156 203.617188 239.578125 C 203.078125 239.109375 202.578125 238.632812 202.09375 238.195312 C 201.605469 237.761719 201.195312 237.296875 200.792969 236.894531 C 200.402344 236.484375 200.023438 236.128906 199.730469 235.769531 C 199.425781 235.421875 199.164062 235.117188 198.949219 234.867188 C 198.515625 234.371094 198.269531 234.085938 198.269531 234.085938 C 198.269531 234.085938 198.550781 234.34375 199.035156 234.789062 C 199.28125 235.007812 199.578125 235.28125 199.914062 235.585938 C 200.242188 235.90625 200.664062 236.21875 201.097656 236.578125 C 201.542969 236.925781 201.992188 237.335938 202.523438 237.703125 C 203.050781 238.082031 203.589844 238.492188 204.167969 238.886719 C 204.761719 239.265625 205.367188 239.667969 205.988281 240.054688 C 206.632812 240.421875 207.265625 240.8125 207.929688 241.160156 C 209.859375 242.179688 211.917969 243.214844 214.054688 243.730469 C 226.957031 246.828125 236.761719 245.34375 242.0625 243.910156 C 244.378906 243.285156 245.441406 240.660156 244.199219 238.640625 L 241.214844 233.777344 C 250.996094 229.578125 249.925781 218.996094 247.992188 212.132812 C 247.152344 209.148438 245.28125 206.640625 243.023438 204.515625 C 242.652344 204.210938 242.296875 203.878906 241.910156 203.582031 C 241.515625 203.296875 241.144531 202.980469 240.734375 202.722656 C 239.933594 202.179688 239.105469 201.6875 238.28125 201.253906 C 237.859375 201.050781 237.457031 200.824219 237.039062 200.644531 C 236.625 200.460938 236.21875 200.285156 235.824219 200.113281 C 235.007812 199.8125 234.246094 199.496094 233.511719 199.289062 C 233.148438 199.171875 232.800781 199.066406 232.46875 198.960938 C 232.128906 198.871094 231.808594 198.789062 231.507812 198.710938 C 230.910156 198.550781 230.378906 198.417969 229.9375 198.339844 C 229.058594 198.15625 228.554688 198.054688 228.554688 198.054688 C 228.554688 198.054688 229.066406 198.085938 229.96875 198.152344 C 230.417969 198.175781 230.960938 198.234375 231.585938 198.3125 " fill-opacity="1" fill-rule="nonzero"/><path fill="#000000" d="M 192.546875 268.253906 L 192.546875 272.707031 C 192.546875 274.554688 194.074219 276.050781 195.957031 276.050781 C 197.839844 276.050781 199.367188 274.554688 199.367188 272.707031 L 199.367188 268.253906 C 199.367188 266.40625 197.839844 264.90625 195.957031 264.90625 C 194.074219 264.90625 192.546875 266.40625 192.546875 268.253906 " fill-opacity="1" fill-rule="nonzero"/><path fill="#000000" d="M 201.75 266.214844 L 201.75 270.242188 C 201.75 271.914062 203.132812 273.269531 204.835938 273.269531 C 206.542969 273.269531 207.925781 271.914062 207.925781 270.242188 L 207.925781 266.214844 C 207.925781 264.539062 206.542969 263.183594 204.835938 263.183594 C 203.132812 263.183594 201.75 264.539062 201.75 266.214844 " fill-opacity="1" fill-rule="nonzero"/><path fill="#000000" d="M 130.824219 243.910156 C 135.328125 245.125 143.09375 246.371094 153.230469 244.820312 C 139.683594 244.617188 128.726562 233.542969 128.726562 219.957031 C 128.726562 211.1875 133.289062 203.472656 140.164062 199.039062 C 139.910156 199.121094 139.652344 199.203125 139.375 199.289062 C 138.644531 199.496094 137.878906 199.8125 137.066406 200.113281 C 136.671875 200.285156 136.265625 200.460938 135.847656 200.644531 C 135.433594 200.824219 135.03125 201.050781 134.609375 201.253906 C 133.78125 201.6875 132.953125 202.179688 132.15625 202.722656 C 131.746094 202.980469 131.375 203.296875 130.980469 203.582031 C 130.59375 203.878906 130.234375 204.210938 129.863281 204.515625 C 127.605469 206.640625 125.738281 209.148438 124.898438 212.132812 C 122.964844 218.996094 121.890625 229.578125 131.671875 233.777344 L 128.691406 238.640625 C 127.449219 240.660156 128.511719 243.285156 130.824219 243.910156 " fill-opacity="1" fill-rule="nonzero"/><path fill="#000000" d="M 231.570312 249.058594 C 230.722656 249.097656 229.851562 249.121094 228.945312 249.121094 C 224.453125 249.121094 219.835938 248.621094 215.1875 247.640625 C 216.578125 251.398438 217.773438 255.429688 218.039062 258.6875 L 231.570312 249.058594 " fill-opacity="1" fill-rule="nonzero"/><path fill="#000000" d="M 173.519531 268.253906 L 173.519531 272.707031 C 173.519531 274.554688 175.046875 276.050781 176.929688 276.050781 C 178.8125 276.050781 180.339844 274.554688 180.339844 272.707031 L 180.339844 268.253906 C 180.339844 266.40625 178.8125 264.90625 176.929688 264.90625 C 175.046875 264.90625 173.519531 266.40625 173.519531 268.253906 " fill-opacity="1" fill-rule="nonzero"/><path fill="#000000" d="M 164.964844 266.214844 L 164.964844 270.242188 C 164.964844 271.914062 166.347656 273.269531 168.050781 273.269531 C 169.757812 273.269531 171.140625 271.914062 171.140625 270.242188 L 171.140625 266.214844 C 171.140625 264.539062 169.757812 263.183594 168.050781 263.183594 C 166.347656 263.183594 164.964844 264.539062 164.964844 266.214844 " fill-opacity="1" fill-rule="nonzero"/><path fill="#000000" d="M 182.789062 268.492188 L 182.789062 273.265625 C 182.789062 275.242188 184.425781 276.847656 186.445312 276.847656 C 188.464844 276.847656 190.097656 275.242188 190.097656 273.265625 L 190.097656 268.492188 C 190.097656 266.511719 188.464844 264.90625 186.445312 264.90625 C 184.425781 264.90625 182.789062 266.511719 182.789062 268.492188 " fill-opacity="1" fill-rule="nonzero"/><path fill="#000000" d="M 181.414062 59.230469 L 181.53125 59.25 L 181.652344 59.28125 C 181.738281 59.300781 181.824219 59.316406 181.917969 59.339844 C 182.007812 59.363281 182.101562 59.390625 182.195312 59.421875 C 182.292969 59.445312 182.394531 59.480469 182.492188 59.515625 L 182.644531 59.566406 L 182.796875 59.632812 L 182.953125 59.695312 L 183.105469 59.769531 L 183.261719 59.847656 L 183.574219 60.019531 L 183.722656 60.117188 C 183.929688 60.246094 184.121094 60.398438 184.308594 60.550781 C 184.496094 60.710938 184.671875 60.882812 184.835938 61.058594 C 184.996094 61.238281 185.144531 61.425781 185.285156 61.609375 C 185.417969 61.796875 185.546875 61.984375 185.65625 62.167969 C 185.765625 62.351562 185.863281 62.527344 185.949219 62.695312 C 186.03125 62.863281 186.105469 63.019531 186.167969 63.160156 C 186.226562 63.300781 186.28125 63.425781 186.320312 63.53125 C 186.359375 63.632812 186.390625 63.714844 186.410156 63.769531 L 186.4375 63.855469 C 186.4375 63.855469 186.433594 63.730469 186.394531 63.507812 C 186.371094 63.398438 186.347656 63.265625 186.304688 63.113281 C 186.265625 62.960938 186.21875 62.789062 186.148438 62.609375 C 186.117188 62.519531 186.078125 62.425781 186.039062 62.328125 C 186 62.230469 185.957031 62.132812 185.90625 62.03125 C 185.808594 61.832031 185.695312 61.625 185.5625 61.417969 C 185.429688 61.214844 185.28125 61.007812 185.109375 60.816406 C 184.945312 60.617188 184.753906 60.4375 184.558594 60.261719 C 184.355469 60.09375 184.144531 59.933594 183.921875 59.804688 L 183.753906 59.703125 L 183.585938 59.617188 L 183.414062 59.53125 L 183.242188 59.460938 L 183.074219 59.394531 L 182.90625 59.335938 L 182.738281 59.28125 L 182.574219 59.242188 C 182.359375 59.179688 182.148438 59.152344 181.957031 59.121094 C 181.761719 59.105469 181.585938 59.082031 181.433594 59.085938 C 181.273438 59.082031 181.136719 59.078125 181.027344 59.089844 C 180.800781 59.105469 180.675781 59.117188 180.675781 59.117188 C 180.675781 59.117188 180.800781 59.136719 181.019531 59.164062 C 181.132812 59.175781 181.261719 59.207031 181.414062 59.230469 " fill-opacity="1" fill-rule="nonzero"/><path fill="#000000" d="M 187.722656 63.53125 C 187.761719 63.425781 187.8125 63.300781 187.875 63.160156 C 187.9375 63.019531 188.007812 62.863281 188.09375 62.695312 C 188.175781 62.527344 188.277344 62.351562 188.382812 62.167969 C 188.496094 61.984375 188.621094 61.796875 188.753906 61.609375 C 188.894531 61.425781 189.042969 61.238281 189.207031 61.058594 C 189.371094 60.882812 189.546875 60.710938 189.734375 60.550781 C 189.917969 60.398438 190.113281 60.246094 190.316406 60.117188 L 190.46875 60.019531 L 190.621094 59.933594 L 190.777344 59.847656 L 190.933594 59.769531 L 191.089844 59.695312 L 191.246094 59.632812 L 191.398438 59.566406 L 191.550781 59.515625 C 191.648438 59.480469 191.746094 59.445312 191.84375 59.421875 C 191.941406 59.390625 192.035156 59.363281 192.125 59.339844 C 192.214844 59.316406 192.304688 59.300781 192.386719 59.28125 L 192.507812 59.25 L 192.628906 59.230469 C 192.777344 59.207031 192.910156 59.175781 193.019531 59.164062 C 193.242188 59.136719 193.367188 59.117188 193.367188 59.117188 C 193.367188 59.117188 193.242188 59.105469 193.015625 59.089844 C 192.902344 59.078125 192.769531 59.082031 192.609375 59.085938 C 192.453125 59.082031 192.28125 59.105469 192.085938 59.121094 C 191.890625 59.152344 191.683594 59.179688 191.46875 59.242188 L 191.300781 59.28125 L 191.136719 59.335938 L 190.964844 59.394531 L 190.796875 59.460938 L 190.625 59.53125 L 190.457031 59.617188 L 190.285156 59.703125 L 190.121094 59.804688 C 189.894531 59.933594 189.6875 60.09375 189.484375 60.261719 C 189.289062 60.4375 189.097656 60.617188 188.933594 60.816406 C 188.761719 61.007812 188.613281 61.214844 188.480469 61.417969 C 188.34375 61.625 188.230469 61.832031 188.132812 62.03125 C 188.085938 62.132812 188.042969 62.230469 188 62.328125 C 187.964844 62.425781 187.921875 62.519531 187.890625 62.609375 C 187.824219 62.789062 187.777344 62.960938 187.738281 63.113281 C 187.695312 63.265625 187.667969 63.398438 187.648438 63.507812 C 187.609375 63.730469 187.605469 63.855469 187.605469 63.855469 L 187.632812 63.769531 C 187.652344 63.714844 187.683594 63.632812 187.722656 63.53125 " fill-opacity="1" fill-rule="nonzero"/><path fill="#000000" d="M 186.785156 68.96875 C 186.863281 68.9375 186.941406 68.921875 187.019531 68.921875 C 187.101562 68.921875 187.179688 68.9375 187.253906 68.96875 C 190.605469 70.339844 188.585938 66.835938 187.535156 65.226562 C 187.414062 65.042969 187.21875 64.949219 187.019531 64.949219 C 186.824219 64.949219 186.628906 65.042969 186.507812 65.226562 C 185.457031 66.835938 183.4375 70.339844 186.785156 68.96875 " fill-opacity="1" fill-rule="nonzero"/><path fill="#000000" d="M 189.230469 65.546875 C 189.75 66.074219 190.441406 66.40625 191.179688 66.46875 C 193.339844 66.652344 197.644531 66.609375 197.441406 63.234375 C 197.28125 60.65625 195.058594 60.960938 193.253906 61.746094 C 192.253906 62.179688 187.855469 64.144531 189.230469 65.546875 " fill-opacity="1" fill-rule="nonzero"/><path fill="#000000" d="M 175.960938 58.523438 C 176.074219 58.765625 176.1875 58.972656 176.28125 59.136719 C 176.46875 59.472656 176.59375 59.652344 176.59375 59.652344 C 176.59375 59.652344 176.574219 59.601562 176.539062 59.503906 C 176.5 59.410156 176.453125 59.265625 176.390625 59.089844 C 176.328125 58.910156 176.257812 58.691406 176.175781 58.4375 C 176.097656 58.1875 176.011719 57.902344 175.925781 57.59375 C 175.902344 57.515625 175.878906 57.433594 175.859375 57.351562 C 175.839844 57.273438 175.816406 57.191406 175.796875 57.105469 C 175.75 56.9375 175.710938 56.761719 175.667969 56.582031 C 175.585938 56.222656 175.5 55.84375 175.433594 55.445312 C 175.359375 55.050781 175.304688 54.640625 175.253906 54.226562 C 175.210938 53.808594 175.167969 53.386719 175.160156 52.957031 L 175.144531 52.640625 C 175.148438 52.535156 175.148438 52.429688 175.148438 52.324219 C 175.144531 52.109375 175.15625 51.902344 175.164062 51.691406 L 175.167969 51.539062 L 175.183594 51.382812 C 175.191406 51.277344 175.199219 51.175781 175.207031 51.074219 C 175.210938 50.972656 175.226562 50.871094 175.238281 50.769531 C 175.25 50.671875 175.261719 50.570312 175.273438 50.472656 C 175.304688 50.277344 175.339844 50.082031 175.371094 49.890625 C 175.402344 49.703125 175.449219 49.523438 175.484375 49.339844 C 175.570312 48.988281 175.660156 48.652344 175.761719 48.347656 C 175.789062 48.269531 175.8125 48.195312 175.835938 48.121094 C 175.863281 48.050781 175.890625 47.984375 175.914062 47.910156 C 175.964844 47.773438 176.011719 47.644531 176.058594 47.523438 C 176.113281 47.402344 176.164062 47.289062 176.207031 47.183594 C 176.253906 47.078125 176.292969 46.980469 176.332031 46.894531 C 176.421875 46.726562 176.484375 46.589844 176.527344 46.496094 C 176.574219 46.40625 176.59375 46.355469 176.59375 46.355469 C 176.59375 46.355469 176.5625 46.402344 176.5 46.480469 C 176.4375 46.5625 176.34375 46.679688 176.226562 46.835938 C 176.117188 46.988281 175.992188 47.191406 175.851562 47.417969 C 175.78125 47.53125 175.71875 47.660156 175.644531 47.792969 C 175.609375 47.859375 175.570312 47.925781 175.535156 48 C 175.503906 48.070312 175.46875 48.144531 175.433594 48.21875 C 175.402344 48.296875 175.367188 48.371094 175.332031 48.453125 L 175.277344 48.574219 L 175.230469 48.695312 C 175.167969 48.863281 175.101562 49.039062 175.039062 49.21875 C 174.984375 49.402344 174.929688 49.589844 174.875 49.785156 C 174.828125 49.980469 174.78125 50.179688 174.738281 50.382812 C 174.707031 50.585938 174.664062 50.792969 174.636719 51.007812 C 174.613281 51.222656 174.578125 51.4375 174.570312 51.65625 C 174.558594 51.875 174.539062 52.09375 174.542969 52.316406 C 174.539062 52.425781 174.539062 52.539062 174.539062 52.652344 L 174.546875 52.984375 C 174.554688 53.203125 174.574219 53.425781 174.589844 53.644531 C 174.597656 53.757812 174.613281 53.867188 174.625 53.976562 C 174.640625 54.082031 174.652344 54.195312 174.667969 54.300781 C 174.699219 54.515625 174.730469 54.730469 174.773438 54.9375 C 174.792969 55.042969 174.8125 55.148438 174.835938 55.253906 C 174.855469 55.355469 174.882812 55.453125 174.902344 55.558594 C 174.996094 55.960938 175.109375 56.34375 175.222656 56.707031 C 175.34375 57.0625 175.464844 57.402344 175.59375 57.707031 C 175.652344 57.859375 175.71875 58.003906 175.777344 58.140625 C 175.839844 58.277344 175.902344 58.40625 175.960938 58.523438 " fill-opacity="1" fill-rule="nonzero"/><path fill="#000000" d="M 180.785156 61.746094 C 178.980469 60.960938 176.757812 60.65625 176.601562 63.234375 C 176.394531 66.609375 180.703125 66.652344 182.863281 66.46875 C 183.597656 66.40625 184.292969 66.074219 184.8125 65.546875 C 186.1875 64.144531 181.789062 62.179688 180.785156 61.746094 " fill-opacity="1" fill-rule="nonzero"/><path fill="#000000" d="M 198.789062 54.226562 C 198.738281 54.640625 198.679688 55.050781 198.609375 55.445312 C 198.539062 55.84375 198.457031 56.222656 198.375 56.582031 C 198.332031 56.761719 198.292969 56.9375 198.246094 57.105469 C 198.226562 57.191406 198.203125 57.273438 198.183594 57.351562 C 198.160156 57.433594 198.140625 57.515625 198.117188 57.59375 C 198.027344 57.902344 197.945312 58.1875 197.863281 58.4375 C 197.785156 58.691406 197.710938 58.910156 197.652344 59.089844 C 197.585938 59.265625 197.539062 59.410156 197.5 59.503906 C 197.46875 59.601562 197.445312 59.652344 197.445312 59.652344 C 197.445312 59.652344 197.574219 59.472656 197.761719 59.136719 C 197.855469 58.972656 197.96875 58.765625 198.082031 58.523438 C 198.140625 58.40625 198.199219 58.277344 198.261719 58.140625 C 198.324219 58.003906 198.386719 57.859375 198.449219 57.707031 C 198.574219 57.402344 198.699219 57.0625 198.816406 56.707031 C 198.933594 56.34375 199.046875 55.960938 199.136719 55.558594 C 199.160156 55.453125 199.1875 55.355469 199.207031 55.253906 C 199.230469 55.148438 199.246094 55.042969 199.269531 54.9375 C 199.3125 54.730469 199.34375 54.515625 199.375 54.300781 C 199.390625 54.195312 199.402344 54.082031 199.417969 53.976562 C 199.429688 53.867188 199.445312 53.757812 199.449219 53.644531 C 199.464844 53.425781 199.488281 53.203125 199.492188 52.984375 L 199.503906 52.652344 C 199.503906 52.539062 199.5 52.425781 199.5 52.316406 C 199.503906 52.09375 199.484375 51.875 199.472656 51.65625 C 199.460938 51.4375 199.425781 51.222656 199.402344 51.007812 C 199.375 50.792969 199.335938 50.585938 199.304688 50.382812 C 199.261719 50.179688 199.214844 49.980469 199.167969 49.785156 C 199.113281 49.589844 199.054688 49.402344 199 49.21875 C 198.941406 49.039062 198.875 48.863281 198.8125 48.695312 L 198.710938 48.453125 C 198.675781 48.371094 198.640625 48.296875 198.605469 48.21875 C 198.570312 48.144531 198.539062 48.070312 198.503906 48 C 198.46875 47.925781 198.433594 47.859375 198.398438 47.792969 C 198.324219 47.660156 198.257812 47.53125 198.191406 47.417969 C 198.046875 47.191406 197.925781 46.988281 197.8125 46.835938 C 197.699219 46.679688 197.605469 46.5625 197.542969 46.480469 C 197.480469 46.402344 197.445312 46.355469 197.445312 46.355469 C 197.445312 46.355469 197.46875 46.40625 197.515625 46.496094 C 197.558594 46.589844 197.621094 46.726562 197.707031 46.894531 C 197.75 46.980469 197.789062 47.078125 197.832031 47.183594 C 197.878906 47.289062 197.929688 47.402344 197.980469 47.523438 C 198.027344 47.644531 198.074219 47.773438 198.125 47.910156 C 198.152344 47.984375 198.179688 48.050781 198.207031 48.121094 C 198.230469 48.195312 198.253906 48.269531 198.277344 48.347656 C 198.382812 48.652344 198.46875 48.988281 198.558594 49.339844 C 198.59375 49.523438 198.636719 49.703125 198.671875 49.890625 C 198.703125 50.082031 198.738281 50.277344 198.769531 50.472656 C 198.777344 50.570312 198.792969 50.671875 198.800781 50.769531 C 198.8125 50.871094 198.832031 50.972656 198.835938 51.074219 C 198.84375 51.175781 198.851562 51.277344 198.859375 51.382812 L 198.875 51.539062 L 198.878906 51.691406 C 198.886719 51.902344 198.898438 52.109375 198.894531 52.324219 C 198.894531 52.429688 198.894531 52.535156 198.894531 52.640625 L 198.882812 52.957031 C 198.871094 53.386719 198.832031 53.808594 198.789062 54.226562 " fill-opacity="1" fill-rule="nonzero"/><path fill="#000000" d="M 46.792969 123.457031 C 47.101562 123.914062 47.570312 124.574219 48.140625 125.4375 C 48.726562 126.28125 49.492188 127.261719 50.3125 128.414062 C 50.738281 128.980469 51.230469 129.5625 51.722656 130.183594 C 52.234375 130.796875 52.71875 131.472656 53.316406 132.113281 C 53.886719 132.765625 54.484375 133.445312 55.101562 134.152344 C 55.734375 134.84375 56.421875 135.527344 57.105469 136.242188 C 57.457031 136.59375 57.792969 136.96875 58.15625 137.320312 C 58.53125 137.667969 58.910156 138.019531 59.289062 138.371094 C 59.667969 138.726562 60.054688 139.085938 60.445312 139.449219 C 60.636719 139.628906 60.832031 139.8125 61.027344 139.992188 C 61.230469 140.164062 61.4375 140.339844 61.644531 140.507812 C 62.472656 141.203125 63.3125 141.90625 64.164062 142.621094 C 65.050781 143.289062 65.949219 143.957031 66.855469 144.636719 C 67.734375 145.347656 68.726562 145.925781 69.667969 146.574219 C 70.621094 147.214844 71.566406 147.871094 72.578125 148.417969 C 73.566406 149.003906 74.558594 149.585938 75.546875 150.167969 C 76.566406 150.695312 77.582031 151.21875 78.589844 151.734375 C 79.101562 151.988281 79.59375 152.269531 80.105469 152.5 C 80.621094 152.730469 81.128906 152.960938 81.636719 153.1875 C 82.652344 153.644531 83.660156 154.097656 84.644531 154.542969 C 85.65625 154.933594 86.652344 155.320312 87.625 155.699219 C 88.601562 156.074219 89.542969 156.488281 90.496094 156.777344 C 91.445312 157.097656 92.363281 157.40625 93.253906 157.703125 C 94.148438 158.003906 95 158.332031 95.847656 158.550781 C 97.527344 159.027344 99.066406 159.488281 100.4375 159.902344 C 101.117188 160.121094 101.773438 160.230469 102.371094 160.398438 C 102.972656 160.550781 103.523438 160.691406 104.019531 160.820312 C 105.019531 161.066406 105.800781 161.289062 106.332031 161.429688 C 106.867188 161.578125 107.15625 161.65625 107.15625 161.65625 C 107.15625 161.65625 106.859375 161.636719 106.308594 161.605469 C 105.757812 161.558594 104.949219 161.515625 103.917969 161.417969 C 102.890625 161.316406 101.628906 161.253906 100.203125 161.046875 C 98.78125 160.824219 97.171875 160.570312 95.417969 160.269531 C 94.53125 160.144531 93.640625 159.890625 92.703125 159.679688 C 91.769531 159.453125 90.804688 159.21875 89.8125 158.976562 C 88.808594 158.761719 87.824219 158.394531 86.796875 158.085938 C 85.769531 157.753906 84.726562 157.414062 83.660156 157.070312 C 82.617188 156.671875 81.566406 156.238281 80.496094 155.808594 C 79.960938 155.59375 79.425781 155.375 78.882812 155.15625 C 78.34375 154.929688 77.828125 154.652344 77.296875 154.402344 C 76.238281 153.882812 75.171875 153.359375 74.101562 152.835938 C 73.070312 152.238281 72.03125 151.636719 70.992188 151.035156 C 69.945312 150.453125 68.964844 149.761719 67.976562 149.089844 C 66.996094 148.410156 65.992188 147.769531 65.085938 147.011719 C 64.15625 146.28125 63.238281 145.550781 62.34375 144.820312 C 61.492188 144.039062 60.648438 143.265625 59.824219 142.503906 C 59.617188 142.316406 59.410156 142.125 59.207031 141.9375 C 59.015625 141.734375 58.824219 141.535156 58.632812 141.335938 C 58.253906 140.9375 57.878906 140.539062 57.507812 140.144531 C 57.140625 139.75 56.773438 139.363281 56.410156 138.980469 C 56.058594 138.585938 55.734375 138.175781 55.410156 137.78125 C 54.765625 136.980469 54.109375 136.230469 53.53125 135.453125 C 52.972656 134.671875 52.433594 133.910156 51.914062 133.183594 C 51.382812 132.464844 50.953125 131.722656 50.523438 131.03125 C 50.105469 130.332031 49.695312 129.6875 49.339844 129.054688 C 48.648438 127.773438 48.058594 126.65625 47.609375 125.730469 C 47.179688 124.792969 46.867188 124.042969 46.640625 123.539062 C 46.421875 123.03125 46.308594 122.761719 46.308594 122.761719 C 46.308594 122.761719 46.476562 123 46.792969 123.457031 Z M 126.660156 65.640625 C 126.203125 66.925781 125.773438 68.035156 125.425781 68.949219 C 125.070312 69.863281 124.769531 70.574219 124.574219 71.058594 C 124.371094 71.542969 124.261719 71.800781 124.261719 71.800781 C 124.261719 71.800781 124.3125 71.527344 124.40625 71.011719 C 124.507812 70.492188 124.640625 69.734375 124.839844 68.78125 C 125.027344 67.820312 125.246094 66.65625 125.53125 65.328125 C 125.804688 63.996094 126.105469 62.496094 126.4375 60.859375 C 127.121094 57.59375 127.914062 53.785156 128.761719 49.703125 C 129.183594 47.667969 129.621094 45.5625 130.066406 43.421875 C 130.28125 42.355469 130.503906 41.277344 130.722656 40.195312 L 130.882812 39.390625 C 130.945312 39.085938 131.007812 38.804688 131.070312 38.527344 C 131.203125 37.964844 131.339844 37.410156 131.488281 36.859375 C 132.085938 34.65625 132.796875 32.496094 133.605469 30.410156 C 134.414062 28.324219 135.316406 26.3125 136.296875 24.417969 C 137.273438 22.519531 138.332031 20.742188 139.433594 19.125 C 140.53125 17.503906 141.675781 16.042969 142.804688 14.761719 C 143.925781 13.472656 145.074219 12.402344 146.101562 11.484375 C 146.640625 11.042969 147.121094 10.613281 147.605469 10.261719 C 148.089844 9.910156 148.519531 9.578125 148.9375 9.304688 C 149.351562 9.03125 149.722656 8.792969 150.046875 8.589844 C 150.371094 8.394531 150.65625 8.246094 150.886719 8.113281 C 151.347656 7.863281 151.589844 7.730469 151.589844 7.730469 C 151.589844 7.730469 151.378906 7.914062 150.984375 8.257812 C 150.789062 8.429688 150.535156 8.632812 150.253906 8.890625 C 149.980469 9.152344 149.667969 9.449219 149.3125 9.777344 C 148.960938 10.105469 148.597656 10.503906 148.191406 10.917969 C 147.792969 11.339844 147.378906 11.8125 146.925781 12.304688 C 146.066406 13.335938 145.121094 14.507812 144.1875 15.855469 C 142.308594 18.542969 140.402344 21.863281 138.734375 25.59375 C 137.894531 27.460938 137.109375 29.421875 136.378906 31.441406 C 135.664062 33.46875 134.996094 35.546875 134.4375 37.648438 C 134.300781 38.171875 134.164062 38.695312 134.035156 39.21875 L 133.863281 39.984375 L 133.691406 40.808594 C 133.464844 41.902344 133.207031 42.984375 132.964844 44.058594 C 132.472656 46.203125 131.9375 48.300781 131.402344 50.328125 C 130.328125 54.378906 129.199219 58.128906 128.152344 61.316406 C 127.636719 62.910156 127.113281 64.355469 126.660156 65.640625 Z M 168.75 71.148438 C 169.046875 70.878906 169.21875 70.492188 169.203125 70.09375 C 169.15625 69.058594 169.898438 67.558594 171.484375 67.570312 C 172.742188 67.582031 173.238281 69.105469 173.4375 70.191406 C 173.566406 70.914062 173.980469 71.554688 174.589844 71.96875 L 187.011719 80.386719 L 188.222656 81.207031 L 200.644531 89.625 C 201.253906 90.039062 202.003906 90.1875 202.722656 90.039062 C 203.808594 89.820312 205.40625 89.722656 205.882812 90.882812 C 206.480469 92.355469 205.363281 93.59375 204.382812 93.941406 C 204.003906 94.070312 203.707031 94.371094 203.570312 94.746094 C 203.347656 95.359375 202.863281 96.136719 201.847656 96.109375 C 200.902344 96.082031 200.113281 95.382812 199.9375 94.453125 L 199.765625 93.542969 C 199.667969 93.019531 199.363281 92.550781 198.917969 92.25 L 186.460938 83.804688 L 185.25 82.988281 L 172.792969 74.542969 C 172.347656 74.242188 171.804688 74.128906 171.277344 74.234375 L 170.367188 74.414062 C 169.441406 74.597656 168.5 74.121094 168.125 73.253906 C 167.722656 72.320312 168.265625 71.582031 168.75 71.148438 Z M 182.652344 72.351562 L 182.652344 73.085938 C 182.652344 73.386719 182.410156 73.636719 182.101562 73.636719 C 181.800781 73.636719 181.554688 73.386719 181.554688 73.085938 L 181.554688 72.351562 C 181.554688 72.046875 181.800781 71.800781 182.101562 71.800781 C 182.410156 71.800781 182.652344 72.046875 182.652344 72.351562 Z M 184.136719 72.738281 L 184.136719 73.511719 C 184.136719 73.832031 183.878906 74.09375 183.558594 74.09375 C 183.234375 74.09375 182.976562 73.832031 182.976562 73.511719 L 182.976562 72.738281 C 182.976562 72.417969 183.234375 72.15625 183.558594 72.15625 C 183.878906 72.15625 184.136719 72.417969 184.136719 72.738281 Z M 185.871094 73.128906 L 185.871094 73.984375 C 185.871094 74.339844 185.585938 74.628906 185.230469 74.628906 C 184.875 74.628906 184.585938 74.339844 184.585938 73.984375 L 184.585938 73.128906 C 184.585938 72.777344 184.875 72.488281 185.230469 72.488281 C 185.585938 72.488281 185.871094 72.777344 185.871094 73.128906 Z M 173.261719 51.734375 C 173.261719 45.777344 179.394531 40.933594 187.019531 40.808594 C 194.648438 40.933594 200.777344 45.777344 200.777344 51.734375 C 200.777344 51.734375 200.921875 58.054688 198.390625 60.925781 C 198.25 60.792969 198.097656 60.675781 197.941406 60.566406 C 197.855469 60.511719 197.773438 60.453125 197.6875 60.398438 C 197.597656 60.351562 197.511719 60.296875 197.421875 60.253906 C 197.246094 60.164062 197.066406 60.089844 196.894531 60.027344 C 196.804688 59.992188 196.71875 59.960938 196.636719 59.9375 C 196.546875 59.914062 196.464844 59.886719 196.386719 59.863281 C 196.21875 59.824219 196.0625 59.785156 195.917969 59.761719 C 195.847656 59.75 195.78125 59.738281 195.714844 59.726562 C 195.648438 59.71875 195.585938 59.710938 195.523438 59.703125 C 195.40625 59.6875 195.304688 59.675781 195.21875 59.671875 C 195.050781 59.660156 194.953125 59.652344 194.953125 59.652344 C 194.953125 59.652344 195.046875 59.671875 195.214844 59.707031 C 195.296875 59.722656 195.398438 59.75 195.511719 59.777344 C 195.566406 59.792969 195.625 59.808594 195.691406 59.824219 C 195.753906 59.847656 195.820312 59.867188 195.886719 59.886719 C 196.023438 59.929688 196.167969 59.992188 196.320312 60.046875 C 196.394531 60.082031 196.472656 60.113281 196.550781 60.148438 C 196.628906 60.183594 196.707031 60.226562 196.785156 60.269531 C 196.941406 60.347656 197.097656 60.445312 197.25 60.550781 C 197.324219 60.597656 197.394531 60.660156 197.46875 60.710938 C 197.542969 60.769531 197.609375 60.832031 197.679688 60.894531 C 198.105469 61.300781 198.457031 61.78125 198.617188 62.355469 C 198.980469 63.675781 199.183594 65.703125 197.339844 66.511719 L 197.898438 67.445312 C 198.132812 67.832031 197.933594 68.335938 197.5 68.457031 C 196.5 68.734375 194.652344 69.015625 192.222656 68.421875 C 191.820312 68.324219 191.429688 68.125 191.066406 67.929688 C 190.945312 67.859375 190.824219 67.789062 190.703125 67.714844 C 190.585938 67.640625 190.472656 67.566406 190.359375 67.492188 C 190.25 67.414062 190.148438 67.335938 190.046875 67.265625 C 189.949219 67.195312 189.863281 67.117188 189.78125 67.050781 C 189.699219 66.980469 189.621094 66.921875 189.558594 66.859375 C 189.496094 66.800781 189.4375 66.746094 189.394531 66.707031 C 189.300781 66.621094 189.25 66.570312 189.25 66.570312 C 189.25 66.570312 189.296875 66.625 189.378906 66.722656 C 189.417969 66.769531 189.464844 66.828125 189.523438 66.894531 C 189.578125 66.964844 189.652344 67.03125 189.726562 67.109375 C 189.796875 67.1875 189.875 67.277344 189.96875 67.359375 C 190.058594 67.441406 190.152344 67.535156 190.257812 67.625 C 190.359375 67.714844 190.464844 67.804688 190.578125 67.894531 C 190.691406 67.980469 190.808594 68.070312 190.925781 68.15625 C 191.046875 68.238281 191.164062 68.324219 191.289062 68.398438 L 191.445312 68.496094 C 191.730469 69.167969 192.332031 70.710938 192.3125 71.582031 C 192.199219 71.527344 192.070312 71.496094 191.9375 71.496094 C 191.546875 71.496094 191.21875 71.757812 191.117188 72.113281 C 190.953125 71.953125 190.730469 71.851562 190.484375 71.851562 C 190.039062 71.851562 189.667969 72.183594 189.609375 72.617188 C 189.4375 72.355469 189.144531 72.179688 188.8125 72.179688 C 188.414062 72.179688 188.070312 72.429688 187.929688 72.78125 C 187.777344 72.429688 187.429688 72.179688 187.019531 72.179688 C 186.613281 72.179688 186.261719 72.429688 186.109375 72.78125 C 185.96875 72.429688 185.628906 72.179688 185.230469 72.179688 C 184.894531 72.179688 184.601562 72.355469 184.433594 72.617188 C 184.375 72.183594 184.003906 71.851562 183.558594 71.851562 C 183.308594 71.851562 183.089844 71.953125 182.925781 72.113281 C 182.824219 71.757812 182.492188 71.496094 182.101562 71.496094 C 181.972656 71.496094 181.84375 71.527344 181.730469 71.582031 C 181.710938 70.710938 182.3125 69.167969 182.597656 68.496094 L 182.753906 68.398438 C 182.878906 68.324219 182.996094 68.238281 183.117188 68.15625 C 183.234375 68.070312 183.347656 67.980469 183.464844 67.894531 C 183.574219 67.804688 183.679688 67.714844 183.785156 67.625 C 183.890625 67.535156 183.980469 67.441406 184.074219 67.359375 C 184.164062 67.277344 184.242188 67.1875 184.316406 67.109375 C 184.390625 67.03125 184.464844 66.964844 184.519531 66.894531 C 184.578125 66.828125 184.625 66.769531 184.664062 66.722656 C 184.746094 66.625 184.792969 66.570312 184.792969 66.570312 C 184.792969 66.570312 184.742188 66.621094 184.648438 66.707031 C 184.601562 66.746094 184.546875 66.800781 184.484375 66.859375 C 184.421875 66.921875 184.34375 66.980469 184.261719 67.050781 C 184.175781 67.117188 184.089844 67.195312 183.992188 67.265625 C 183.890625 67.335938 183.792969 67.414062 183.679688 67.492188 C 183.570312 67.566406 183.457031 67.640625 183.339844 67.714844 C 183.21875 67.789062 183.097656 67.859375 182.976562 67.929688 C 182.613281 68.125 182.222656 68.324219 181.820312 68.421875 C 179.386719 69.015625 177.542969 68.734375 176.542969 68.457031 C 176.105469 68.335938 175.90625 67.832031 176.140625 67.445312 L 176.703125 66.511719 C 174.859375 65.703125 175.0625 63.675781 175.425781 62.355469 C 175.585938 61.78125 175.9375 61.300781 176.363281 60.894531 C 176.433594 60.832031 176.5 60.769531 176.574219 60.710938 C 176.648438 60.660156 176.71875 60.597656 176.792969 60.550781 C 176.945312 60.445312 177.097656 60.347656 177.257812 60.269531 C 177.335938 60.226562 177.414062 60.183594 177.488281 60.148438 C 177.566406 60.113281 177.644531 60.082031 177.722656 60.046875 C 177.871094 59.992188 178.015625 59.929688 178.15625 59.886719 C 178.222656 59.867188 178.289062 59.847656 178.351562 59.824219 C 178.414062 59.808594 178.472656 59.792969 178.53125 59.777344 C 178.644531 59.75 178.746094 59.722656 178.828125 59.707031 C 178.992188 59.671875 179.089844 59.652344 179.089844 59.652344 C 179.089844 59.652344 178.992188 59.660156 178.820312 59.671875 C 178.738281 59.675781 178.636719 59.6875 178.515625 59.703125 C 178.457031 59.710938 178.394531 59.71875 178.328125 59.726562 C 178.261719 59.738281 178.195312 59.75 178.121094 59.761719 C 177.976562 59.785156 177.824219 59.824219 177.65625 59.863281 C 177.578125 59.886719 177.492188 59.914062 177.40625 59.9375 C 177.320312 59.960938 177.238281 59.992188 177.148438 60.027344 C 176.972656 60.089844 176.796875 60.164062 176.617188 60.253906 C 176.527344 60.296875 176.445312 60.351562 176.355469 60.398438 C 176.269531 60.453125 176.1875 60.511719 176.101562 60.566406 C 175.945312 60.675781 175.792969 60.792969 175.652344 60.925781 C 173.121094 58.054688 173.261719 51.734375 173.261719 51.734375 Z M 191.386719 73.085938 L 191.386719 72.351562 C 191.386719 72.046875 191.632812 71.800781 191.9375 71.800781 C 192.242188 71.800781 192.488281 72.046875 192.488281 72.351562 L 192.488281 73.085938 C 192.488281 73.386719 192.242188 73.636719 191.9375 73.636719 C 191.632812 73.636719 191.386719 73.386719 191.386719 73.085938 Z M 189.902344 73.511719 L 189.902344 72.738281 C 189.902344 72.417969 190.164062 72.15625 190.484375 72.15625 C 190.808594 72.15625 191.066406 72.417969 191.066406 72.738281 L 191.066406 73.511719 C 191.066406 73.832031 190.808594 74.09375 190.484375 74.09375 C 190.164062 74.09375 189.902344 73.832031 189.902344 73.511719 Z M 188.171875 73.984375 L 188.171875 73.128906 C 188.171875 72.777344 188.457031 72.488281 188.8125 72.488281 C 189.167969 72.488281 189.457031 72.777344 189.457031 73.128906 L 189.457031 73.984375 C 189.457031 74.339844 189.167969 74.628906 188.8125 74.628906 C 188.457031 74.628906 188.171875 74.339844 188.171875 73.984375 Z M 187.019531 74.78125 C 186.640625 74.78125 186.332031 74.472656 186.332031 74.09375 L 186.332031 73.175781 C 186.332031 72.796875 186.640625 72.488281 187.019531 72.488281 C 187.402344 72.488281 187.710938 72.796875 187.710938 73.175781 L 187.710938 74.09375 C 187.710938 74.472656 187.402344 74.78125 187.019531 74.78125 Z M 202.554688 67.570312 C 204.144531 67.558594 204.882812 69.058594 204.839844 70.09375 C 204.824219 70.492188 204.992188 70.878906 205.292969 71.148438 C 205.777344 71.582031 206.320312 72.320312 205.914062 73.253906 C 205.542969 74.121094 204.597656 74.597656 203.671875 74.414062 L 202.761719 74.234375 C 202.238281 74.128906 201.691406 74.242188 201.25 74.542969 L 190.378906 81.910156 L 187.582031 80.011719 L 199.449219 71.96875 C 200.0625 71.554688 200.476562 70.914062 200.605469 70.191406 C 200.800781 69.105469 201.300781 67.582031 202.554688 67.570312 Z M 175.121094 92.25 C 174.675781 92.550781 174.375 93.019531 174.273438 93.542969 L 174.105469 94.453125 C 173.929688 95.382812 173.140625 96.082031 172.191406 96.109375 C 171.179688 96.136719 170.695312 95.359375 170.472656 94.746094 C 170.332031 94.371094 170.035156 94.070312 169.660156 93.941406 C 168.679688 93.59375 167.5625 92.355469 168.160156 90.882812 C 168.632812 89.722656 170.234375 89.820312 171.320312 90.039062 C 172.039062 90.1875 172.785156 90.039062 173.394531 89.625 L 183.664062 82.667969 L 186.460938 84.566406 Z M 111.8125 167.5 C 111.8125 167.5 111.863281 167.449219 111.96875 167.347656 C 112.039062 167.222656 112.109375 167.089844 112.183594 166.957031 C 112.773438 165.910156 113.519531 164.660156 114.476562 163.28125 C 115.441406 161.914062 116.582031 160.398438 117.941406 158.835938 C 118.332031 158.382812 118.757812 157.941406 119.175781 157.472656 C 119.300781 157.335938 119.425781 157.203125 119.550781 157.066406 C 119.746094 156.867188 119.941406 156.671875 120.136719 156.46875 C 120.53125 156.074219 120.929688 155.667969 121.34375 155.265625 C 121.761719 154.875 122.191406 154.472656 122.628906 154.070312 C 123.054688 153.65625 123.519531 153.273438 123.984375 152.882812 C 124.453125 152.492188 124.914062 152.074219 125.40625 151.695312 C 126.386719 150.925781 127.390625 150.128906 128.457031 149.394531 C 130.558594 147.867188 132.859375 146.484375 135.230469 145.148438 C 135.835938 144.832031 136.441406 144.515625 137.046875 144.199219 L 137.960938 143.726562 C 138.265625 143.5625 138.582031 143.433594 138.894531 143.289062 C 140.148438 142.714844 141.394531 142.109375 142.683594 141.609375 L 144.605469 140.839844 C 145.421875 140.527344 146.25 140.261719 147.0625 139.953125 C 147.472656 139.808594 147.882812 139.667969 148.292969 139.523438 C 149.015625 139.308594 149.738281 139.09375 150.453125 138.878906 C 151.105469 138.683594 151.753906 138.492188 152.398438 138.300781 C 153.050781 138.140625 153.699219 137.980469 154.347656 137.820312 C 154.992188 137.664062 155.632812 137.503906 156.269531 137.347656 C 156.90625 137.203125 157.550781 137.089844 158.183594 136.964844 C 160.707031 136.421875 163.179688 136.097656 165.515625 135.769531 C 167.863281 135.542969 170.074219 135.28125 172.132812 135.21875 C 173.15625 135.167969 174.140625 135.121094 175.078125 135.078125 C 176.011719 135.078125 176.898438 135.078125 177.730469 135.078125 C 178.566406 135.078125 179.34375 135.070312 180.0625 135.082031 C 180.785156 135.097656 181.445312 135.144531 182.042969 135.171875 C 183.234375 135.21875 184.171875 135.289062 184.808594 135.324219 C 185.449219 135.363281 185.789062 135.390625 185.789062 135.390625 C 185.789062 135.390625 185.449219 135.421875 184.8125 135.484375 C 184.171875 135.539062 183.242188 135.632812 182.054688 135.726562 C 181.460938 135.777344 180.804688 135.816406 180.09375 135.890625 C 179.378906 135.980469 178.609375 136.054688 177.789062 136.144531 C 176.96875 136.234375 176.09375 136.324219 175.175781 136.425781 C 174.257812 136.550781 173.292969 136.6875 172.289062 136.828125 C 170.273438 137.0625 168.117188 137.480469 165.832031 137.851562 C 163.558594 138.3125 161.160156 138.757812 158.71875 139.382812 C 158.109375 139.53125 157.492188 139.679688 156.871094 139.832031 C 156.253906 140 155.632812 140.175781 155.011719 140.347656 C 154.386719 140.523438 153.761719 140.695312 153.132812 140.871094 C 152.507812 141.070312 151.878906 141.269531 151.25 141.46875 C 150.558594 141.6875 149.859375 141.914062 149.164062 142.132812 C 148.769531 142.277344 148.371094 142.421875 147.976562 142.566406 C 147.191406 142.867188 146.390625 143.128906 145.601562 143.4375 L 143.746094 144.195312 C 141.257812 145.179688 138.855469 146.351562 136.507812 147.535156 C 135.929688 147.851562 135.359375 148.164062 134.785156 148.476562 C 134.214844 148.789062 133.636719 149.089844 133.09375 149.433594 C 132.539062 149.761719 131.988281 150.09375 131.445312 150.417969 C 130.898438 150.742188 130.378906 151.101562 129.847656 151.4375 C 128.785156 152.097656 127.792969 152.835938 126.800781 153.519531 C 126.304688 153.863281 125.84375 154.238281 125.367188 154.59375 C 124.898438 154.949219 124.429688 155.296875 123.988281 155.664062 C 123.542969 156.027344 123.101562 156.386719 122.667969 156.738281 C 122.246094 157.105469 121.832031 157.464844 121.421875 157.820312 C 121.21875 158 121.015625 158.175781 120.816406 158.351562 C 120.621094 158.53125 120.425781 158.714844 120.234375 158.890625 C 119.855469 159.25 119.472656 159.59375 119.113281 159.945312 C 117.667969 161.347656 116.402344 162.699219 115.316406 163.929688 C 114.695312 164.667969 114.128906 165.351562 113.625 165.992188 C 118.433594 162.351562 133.355469 153.171875 164.574219 150.089844 C 165.164062 150.03125 165.757812 149.976562 166.355469 149.921875 L 166.511719 149.90625 C 167.203125 149.847656 167.902344 149.789062 168.605469 149.734375 C 168.765625 149.71875 168.925781 149.707031 169.085938 149.691406 C 174.054688 149.308594 179.273438 149.058594 184.722656 148.988281 C 185.109375 148.996094 185.488281 149.003906 185.871094 149.011719 C 186.253906 149.003906 186.636719 148.996094 187.019531 148.988281 C 192.46875 149.058594 197.6875 149.308594 202.65625 149.691406 C 202.820312 149.707031 202.976562 149.71875 203.140625 149.734375 C 203.839844 149.789062 204.539062 149.847656 205.230469 149.90625 L 205.386719 149.921875 C 205.984375 149.976562 206.578125 150.03125 207.167969 150.089844 C 246.445312 153.96875 259.929688 167.5 259.929688 167.5 C 285.441406 165.484375 302.546875 157.21875 314.023438 146.988281 C 313.550781 146.914062 313.074219 146.832031 312.59375 146.746094 C 311.746094 146.574219 310.890625 146.371094 310.050781 146.121094 C 309.207031 145.878906 308.382812 145.597656 307.585938 145.269531 C 306.785156 144.953125 306.023438 144.589844 305.304688 144.207031 C 304.941406 144.019531 304.601562 143.804688 304.261719 143.613281 C 303.929688 143.414062 303.617188 143.191406 303.304688 142.992188 C 302.695312 142.566406 302.136719 142.148438 301.652344 141.722656 C 301.148438 141.324219 300.746094 140.890625 300.367188 140.539062 C 300.019531 140.152344 299.703125 139.828125 299.464844 139.546875 C 299 138.96875 298.734375 138.640625 298.734375 138.640625 C 298.734375 138.640625 299.046875 138.925781 299.589844 139.421875 C 299.863281 139.664062 300.21875 139.9375 300.617188 140.253906 C 301.039062 140.542969 301.484375 140.898438 302.027344 141.210938 C 302.550781 141.542969 303.148438 141.859375 303.777344 142.175781 C 304.105469 142.320312 304.429688 142.480469 304.769531 142.625 C 305.117188 142.753906 305.464844 142.90625 305.828125 143.027344 C 306.554688 143.28125 307.308594 143.511719 308.09375 143.691406 C 308.871094 143.878906 309.671875 144.023438 310.476562 144.128906 C 311.28125 144.242188 312.089844 144.304688 312.886719 144.34375 C 313.6875 144.371094 314.46875 144.382812 315.226562 144.351562 C 315.8125 144.332031 316.375 144.289062 316.921875 144.242188 C 318.917969 142.238281 320.71875 140.175781 322.347656 138.085938 C 321.996094 138.054688 321.640625 138.019531 321.277344 137.976562 C 320.460938 137.886719 319.621094 137.746094 318.769531 137.585938 C 317.921875 137.414062 317.066406 137.214844 316.226562 136.964844 C 315.386719 136.722656 314.558594 136.4375 313.761719 136.113281 C 312.964844 135.796875 312.199219 135.429688 311.480469 135.050781 C 311.121094 134.863281 310.78125 134.648438 310.441406 134.457031 C 310.105469 134.257812 309.792969 134.035156 309.480469 133.835938 C 308.875 133.410156 308.3125 132.988281 307.828125 132.566406 C 307.324219 132.167969 306.921875 131.730469 306.542969 131.378906 C 306.195312 130.996094 305.882812 130.671875 305.644531 130.390625 C 305.179688 129.8125 304.914062 129.484375 304.914062 129.484375 C 304.914062 129.484375 305.222656 129.765625 305.765625 130.265625 C 306.042969 130.503906 306.398438 130.777344 306.792969 131.097656 C 307.214844 131.382812 307.664062 131.738281 308.207031 132.054688 C 308.730469 132.386719 309.324219 132.703125 309.957031 133.019531 C 310.28125 133.164062 310.605469 133.324219 310.949219 133.464844 C 311.296875 133.597656 311.640625 133.75 312.003906 133.871094 C 312.734375 134.121094 313.488281 134.355469 314.269531 134.535156 C 315.050781 134.722656 315.851562 134.867188 316.65625 134.972656 C 317.460938 135.082031 318.269531 135.148438 319.0625 135.1875 C 319.863281 135.210938 320.644531 135.226562 321.402344 135.191406 C 322.578125 135.15625 323.679688 135.046875 324.671875 134.914062 C 327.0625 131.4375 329.007812 127.933594 330.582031 124.519531 C 337.878906 109.71875 337.386719 96.109375 337.386719 96.109375 C 337.121094 96.433594 336.859375 96.75 336.59375 97.066406 C 313.574219 124.375 269.375 116.359375 257.019531 82.851562 C 256.113281 80.390625 255.246094 77.882812 254.417969 75.371094 L 241.792969 76.761719 L 253.769531 73.371094 C 252.828125 70.445312 251.949219 67.527344 251.132812 64.691406 L 234.4375 66.527344 L 250.371094 62.015625 C 246.417969 47.859375 244.125 36.292969 244.125 36.292969 C 244.125 36.292969 239.132812 11.34375 222.152344 2.800781 C 216.761719 0.0898438 210.222656 2.421875 207.679688 7.890625 C 207.039062 9.269531 206.445312 10.585938 205.722656 11.929688 C 201.699219 19.390625 194.375 23.15625 187.019531 23.21875 C 186.636719 23.21875 186.253906 23.203125 185.871094 23.179688 C 185.488281 23.203125 185.105469 23.21875 184.722656 23.21875 C 177.367188 23.15625 170.042969 19.390625 166.019531 11.929688 C 165.296875 10.585938 164.699219 9.269531 164.0625 7.890625 C 161.523438 2.421875 154.976562 0.0898438 149.59375 2.800781 C 132.609375 11.34375 127.621094 36.292969 127.621094 36.292969 C 127.621094 36.292969 122.648438 61.351562 114.722656 82.851562 C 114.390625 83.75 114.03125 84.628906 113.65625 85.492188 L 127.859375 89.390625 L 112.597656 87.75 C 111.058594 90.832031 109.226562 93.65625 107.15625 96.210938 L 120.550781 99.882812 L 105.398438 98.257812 C 87.304688 118.089844 54.074219 119.515625 35.148438 97.066406 C 34.882812 96.75 34.621094 96.433594 34.359375 96.109375 C 34.359375 96.109375 33.867188 109.71875 41.160156 124.519531 C 49.660156 142.929688 68.789062 164.101562 111.8125 167.5 " fill-opacity="1" fill-rule="nonzero"/></svg>