<?xml version="1.0" encoding="UTF-8"?>
<svg xmlns="http://www.w3.org/2000/svg" xmlns:xlink="http://www.w3.org/1999/xlink" width="375pt" height="375pt" viewBox="0 0 375 375" version="1.1">
<defs>
<filter id="alpha" filterUnits="objectBoundingBox" x="0%" y="0%" width="100%" height="100%">
  <feColorMatrix type="matrix" in="SourceGraphic" values="0 0 0 0 1 0 0 0 0 1 0 0 0 0 1 0 0 0 1 0"/>
</filter>
<mask id="mask0">
  <g filter="url(#alpha)">
<rect x="0" y="0" width="375" height="375" style="fill:rgb(0%,0%,0%);fill-opacity:0.901961;stroke:none;"/>
  </g>
</mask>
<linearGradient id="linear0" gradientUnits="userSpaceOnUse" x1="5.216" y1="17.256" x2="44.556" y2="17.256" gradientTransform="matrix(7.8125,0,0,7.8125,0,0)">
<stop offset="0" style="stop-color:rgb(5.882353%,5.882353%,5.882353%);stop-opacity:0.262745;"/>
<stop offset="0.017" style="stop-color:rgb(11.372549%,11.372549%,11.372549%);stop-opacity:0.266667;"/>
<stop offset="0.13" style="stop-color:rgb(41.960784%,41.960784%,41.960784%);stop-opacity:0.290196;"/>
<stop offset="0.2" style="stop-color:rgb(53.333333%,53.333333%,53.333333%);stop-opacity:0.301961;"/>
<stop offset="0.269" style="stop-color:rgb(74.117647%,74.117647%,74.117647%);stop-opacity:0.180392;"/>
<stop offset="0.346" style="stop-color:rgb(87.843137%,87.843137%,87.843137%);stop-opacity:0.101961;"/>
<stop offset="0.448" style="stop-color:rgb(50.588235%,50.588235%,50.588235%);stop-opacity:0.0588235;"/>
<stop offset="0.54" style="stop-color:rgb(0%,0%,0%);stop-opacity:0;"/>
<stop offset="0.554" style="stop-color:rgb(11.764706%,11.764706%,11.764706%);stop-opacity:0.152941;"/>
<stop offset="0.577" style="stop-color:rgb(20.784314%,20.784314%,20.784314%);stop-opacity:0.266667;"/>
<stop offset="0.643" style="stop-color:rgb(23.137255%,23.137255%,23.137255%);stop-opacity:0.301961;"/>
<stop offset="0.793" style="stop-color:rgb(64.705882%,64.705882%,64.705882%);stop-opacity:0.301961;"/>
<stop offset="0.846" style="stop-color:rgb(47.058824%,47.058824%,47.058824%);stop-opacity:0.301961;"/>
<stop offset="0.912" style="stop-color:rgb(30.588235%,30.588235%,30.588235%);stop-opacity:0.301961;"/>
<stop offset="0.952" style="stop-color:rgb(16.078431%,16.078431%,16.078431%);stop-opacity:0.376471;"/>
<stop offset="1" style="stop-color:rgb(8.627451%,8.627451%,8.627451%);stop-opacity:0.415686;"/>
</linearGradient>
<clipPath id="clip1">
  <rect width="375" height="375"/>
</clipPath>
<g id="surface23283" clip-path="url(#clip1)">
<path style=" stroke:none;fill-rule:evenodd;fill:url(#linear0);" d="M 40.75 47.148438 L 40.75 222.46875 C 143.226562 187.546875 245.625 257.398438 348.09375 222.46875 L 348.09375 47.148438 C 245.625 82.070312 143.226562 12.21875 40.75 47.148438 Z M 40.75 47.148438 "/>
</g>
<linearGradient id="linear1" gradientUnits="userSpaceOnUse" x1="3.085" y1="25.408" x2="5.76" y2="25.408" gradientTransform="matrix(7.8125,0,0,7.8125,0,0)">
<stop offset="0" style="stop-color:rgb(65.882353%,65.882353%,65.882353%);stop-opacity:1;"/>
<stop offset="0.009" style="stop-color:rgb(61.176471%,61.176471%,61.176471%);stop-opacity:1;"/>
<stop offset="0.035" style="stop-color:rgb(50.196078%,50.196078%,50.196078%);stop-opacity:1;"/>
<stop offset="0.06" style="stop-color:rgb(42.352941%,42.352941%,42.352941%);stop-opacity:1;"/>
<stop offset="0.086" style="stop-color:rgb(37.647059%,37.647059%,37.647059%);stop-opacity:1;"/>
<stop offset="0.112" style="stop-color:rgb(36.078431%,36.078431%,36.078431%);stop-opacity:1;"/>
<stop offset="0.342" style="stop-color:rgb(100%,100%,100%);stop-opacity:1;"/>
<stop offset="0.496" style="stop-color:rgb(59.607843%,59.607843%,59.607843%);stop-opacity:1;"/>
<stop offset="0.613" style="stop-color:rgb(31.372549%,31.372549%,31.372549%);stop-opacity:1;"/>
<stop offset="0.667" style="stop-color:rgb(20.392157%,20.392157%,20.392157%);stop-opacity:1;"/>
<stop offset="0.813" style="stop-color:rgb(48.627451%,48.627451%,48.627451%);stop-opacity:1;"/>
<stop offset="0.821" style="stop-color:rgb(46.27451%,46.27451%,46.27451%);stop-opacity:1;"/>
<stop offset="0.896" style="stop-color:rgb(27.45098%,27.45098%,27.45098%);stop-opacity:1;"/>
<stop offset="0.933" style="stop-color:rgb(20.392157%,20.392157%,20.392157%);stop-opacity:1;"/>
</linearGradient>
<radialGradient id="radial0" gradientUnits="userSpaceOnUse" cx="-244.041" cy="-334.261" fx="-244.041" fy="-334.261" r="2.149" gradientTransform="matrix(0.000000000000000478,7.8125,-7.8125,0.000000000000000478,-2575.195312,1932.617188)">
<stop offset="0" style="stop-color:rgb(100%,100%,100%);stop-opacity:1;"/>
<stop offset="0.116" style="stop-color:rgb(87.45098%,87.45098%,87.45098%);stop-opacity:1;"/>
<stop offset="0.393" style="stop-color:rgb(59.607843%,59.607843%,59.607843%);stop-opacity:1;"/>
<stop offset="0.522" style="stop-color:rgb(48.627451%,48.627451%,48.627451%);stop-opacity:1;"/>
<stop offset="0.551" style="stop-color:rgb(46.27451%,46.27451%,46.27451%);stop-opacity:1;"/>
<stop offset="0.806" style="stop-color:rgb(27.45098%,27.45098%,27.45098%);stop-opacity:1;"/>
<stop offset="0.933" style="stop-color:rgb(20.392157%,20.392157%,20.392157%);stop-opacity:1;"/>
</radialGradient>
</defs>
<g id="surface23278">
<path style=" stroke:none;fill-rule:evenodd;fill:rgb(0%,0%,0%);fill-opacity:1;" d="M 40.75 47.148438 L 40.75 222.46875 C 143.226562 187.546875 245.625 257.398438 348.09375 222.46875 L 348.09375 47.148438 C 245.625 82.070312 143.226562 12.21875 40.75 47.148438 Z M 40.75 47.148438 "/>
<path style=" stroke:none;fill-rule:evenodd;fill:rgb(100%,100%,100%);fill-opacity:1;" d="M 266.796875 154.132812 C 266.722656 153.910156 266.632812 153.691406 266.523438 153.484375 C 266.433594 153.195312 266.324219 152.917969 266.1875 152.648438 C 266.058594 152.441406 265.917969 152.238281 265.765625 152.046875 L 265.5625 151.671875 L 265.5 151.734375 C 265.308594 151.484375 265.101562 151.246094 264.875 151.023438 C 264.8125 150.96875 264.742188 150.929688 264.679688 150.882812 C 264.46875 150.695312 264.398438 150.4375 264.164062 150.273438 C 263.941406 150.140625 263.703125 150.03125 263.453125 149.953125 C 263.453125 149.898438 263.453125 149.953125 263.453125 149.851562 C 263.804688 146.914062 263.980469 143.957031 263.976562 141 C 263.960938 139.058594 262.519531 137.425781 260.59375 137.164062 C 258.671875 136.914062 256.851562 138.101562 256.304688 139.960938 C 254.398438 144.023438 251.347656 147.441406 247.53125 149.796875 C 245.132812 151.859375 242.226562 153.246094 239.117188 153.820312 C 238.269531 153.609375 237.441406 153.332031 236.640625 152.984375 C 238.011719 149.039062 237.996094 144.746094 236.59375 140.8125 C 239.535156 131.023438 241.464844 120.957031 242.34375 110.773438 C 242.703125 110.191406 242.921875 109.535156 242.976562 108.851562 C 243.472656 99.304688 239.671875 90.039062 232.609375 83.59375 C 231.527344 82.511719 230.371094 81.511719 229.148438 80.59375 C 227.671875 78.367188 225.789062 76.433594 223.601562 74.898438 C 223.402344 73.964844 222.828125 73.15625 222.011719 72.667969 C 221.195312 72.175781 220.214844 72.042969 219.296875 72.304688 C 218.710938 72.007812 218.132812 71.679688 217.53125 71.421875 C 208.414062 67.03125 198.679688 64.058594 188.664062 62.609375 C 178.992188 61.796875 169.332031 64.34375 161.320312 69.820312 C 156.03125 73.390625 145.75 79.3125 144.914062 86.578125 C 144.523438 87.199219 144.351562 87.933594 144.421875 88.664062 C 145.367188 100.46875 147.117188 112.976562 156.414062 121.226562 C 156.347656 121.96875 156.175781 122.695312 155.90625 123.390625 C 153.957031 126.597656 153.855469 130.597656 155.640625 133.898438 C 155.640625 133.976562 155.726562 134.039062 155.757812 134.117188 C 155.523438 135.464844 155.566406 136.84375 155.875 138.171875 C 152.601562 136.609375 149.078125 135.664062 145.71875 134.4375 C 143.714844 133.789062 141.828125 132.820312 140.132812 131.570312 C 138.101562 130.007812 136.71875 127.835938 133.984375 127.3125 C 132.808594 127.015625 131.566406 127.273438 130.601562 128.007812 C 129.640625 128.742188 129.0625 129.875 129.039062 131.085938 C 129.039062 135.414062 125.242188 138.71875 122.328125 141.46875 C 118.796875 144.804688 123.804688 149.976562 127.445312 147.25 C 128.5625 147.867188 129.925781 147.835938 131.015625 147.171875 C 136.296875 144.1875 141.632812 148.195312 146.929688 149.179688 C 151.953125 149.964844 156.722656 151.917969 160.851562 154.882812 C 160.976562 155.78125 161.15625 156.65625 161.265625 157.570312 C 161.570312 160.195312 161.914062 162.796875 162.453125 165.382812 C 154.960938 170.726562 146.15625 173.933594 136.984375 174.65625 C 135.234375 173.875 133.203125 174.046875 131.609375 175.113281 C 130.011719 176.175781 129.070312 177.980469 129.117188 179.898438 C 129.273438 182.53125 130.976562 184.820312 133.453125 185.726562 L 133.453125 185.820312 L 133.101562 192 C 133.136719 193.5625 134.089844 194.960938 135.535156 195.558594 C 136.980469 196.160156 138.644531 195.847656 139.773438 194.765625 C 142.101562 192.097656 144.6875 189.664062 147.492188 187.5 C 150.136719 185.851562 153.042969 184.667969 156.085938 184 C 161.375 182.945312 166.71875 182.207031 172.09375 181.789062 C 172.289062 181.96875 172.453125 182.179688 172.65625 182.359375 C 173.078125 182.90625 173.4375 183.476562 173.929688 183.992188 C 174.027344 184.269531 174.160156 184.53125 174.328125 184.773438 C 174.53125 185.046875 174.757812 185.28125 174.96875 185.554688 L 175.140625 185.695312 C 179.378906 191.441406 185.085938 195.9375 191.664062 198.710938 C 198.84375 202.011719 207.171875 201.671875 214.0625 197.804688 C 214.808594 197.183594 215.515625 196.515625 216.179688 195.804688 C 216.46875 196.582031 217.046875 197.21875 217.789062 197.585938 C 223.972656 200.65625 229.746094 204.488281 234.976562 208.992188 C 235.617188 209.539062 236.421875 209.863281 237.265625 209.90625 C 237.574219 210.832031 238.175781 211.632812 238.976562 212.1875 C 239.949219 212.929688 240.871094 213.734375 241.734375 214.601562 C 242.148438 215.15625 242.59375 215.75 243.039062 216.265625 C 243.171875 216.429688 243.359375 216.492188 243.5 216.648438 C 244.128906 217.363281 244.691406 218.128906 245.1875 218.9375 C 245.429688 219.390625 245.875 219.554688 246.242188 219.835938 L 246.296875 219.882812 C 247.234375 220.605469 248.429688 220.914062 249.601562 220.734375 L 249.757812 220.734375 C 251.082031 220.367188 252.117188 219.332031 252.484375 218.007812 L 252.546875 217.835938 C 252.792969 217.492188 252.980469 217.105469 253.09375 216.695312 C 253.132812 216.539062 253.15625 216.382812 253.195312 216.226562 C 253.90625 215.527344 254.246094 214.535156 254.117188 213.546875 C 254.0625 213.023438 254.117188 212.546875 254.117188 212.046875 C 254.4375 210.304688 254.671875 208.546875 254.851562 206.78125 C 257.554688 205.722656 259.808594 203.761719 261.234375 201.234375 C 263.015625 198.023438 259.25 193.546875 255.890625 195.890625 C 254.488281 196.890625 252.859375 197.523438 251.148438 197.734375 C 249.214844 197.863281 247.371094 198.605469 245.882812 199.851562 C 245.195312 199.367188 244.523438 198.851562 243.851562 198.390625 L 235.398438 192.539062 C 234.753906 192.09375 233.96875 191.890625 233.1875 191.976562 L 229.101562 189.03125 L 225.796875 186.640625 L 223.617188 184.59375 C 224.390625 182.640625 224.933594 180.601562 225.234375 178.523438 C 225.234375 178.25 225.328125 177.992188 225.367188 177.742188 C 225.492188 177.707031 225.617188 177.664062 225.734375 177.609375 C 231.585938 173.859375 237.570312 170.335938 243.617188 166.914062 C 243.925781 167.058594 244.246094 167.167969 244.578125 167.25 C 247.195312 167.371094 249.769531 166.535156 251.820312 164.90625 C 254.371094 164.195312 256.988281 163.765625 259.632812 163.632812 C 260.816406 163.621094 261.921875 163.039062 262.601562 162.070312 C 262.910156 161.96875 263.214844 161.847656 263.507812 161.710938 C 265.910156 160.4375 267.265625 157.796875 266.898438 155.101562 C 266.90625 154.777344 266.871094 154.449219 266.796875 154.132812 Z M 266.796875 154.132812 "/>
<path style=" stroke:none;fill-rule:evenodd;fill:rgb(0%,0%,0%);fill-opacity:1;" d="M 211.335938 117.710938 C 208.441406 117.285156 205.511719 118.191406 203.371094 120.183594 C 201.226562 122.171875 200.105469 125.027344 200.320312 127.945312 C 200.277344 136.839844 206.527344 144.527344 215.242188 146.304688 C 219.148438 147.242188 224.070312 144.507812 224.148438 132.945312 C 224.203125 125.410156 218.769531 118.949219 211.335938 117.710938 Z M 194.148438 136.695312 C 190.789062 135.835938 185.398438 144.976562 185.398438 150.601562 C 185.398438 153.570312 186.335938 155.679688 188.914062 156.382812 C 190.164062 156.773438 191.882812 156.460938 193.992188 150.210938 C 194.125 150.230469 194.253906 150.253906 194.382812 150.289062 C 194.773438 152.945312 197.898438 158.726562 200.242188 159.351562 C 202.429688 160.054688 203.835938 158.882812 203.835938 156.539062 C 203.835938 154.351562 197.976562 137.710938 194.148438 136.71875 Z M 177.351562 110.835938 C 168.289062 109.039062 163.757812 114.117188 163.835938 122.398438 C 162.875 129.125 167.332031 135.433594 173.992188 136.773438 C 177.523438 137.746094 181.308594 136.886719 184.070312 134.484375 C 186.835938 132.078125 188.214844 128.453125 187.742188 124.820312 C 188.539062 118.136719 183.972656 111.996094 177.34375 110.835938 Z M 211.335938 117.710938 C 208.441406 117.285156 205.511719 118.191406 203.371094 120.183594 C 201.226562 122.171875 200.105469 125.027344 200.320312 127.945312 C 200.277344 136.839844 206.527344 144.527344 215.242188 146.304688 C 219.148438 147.242188 224.070312 144.507812 224.148438 132.945312 C 224.203125 125.410156 218.769531 118.949219 211.335938 117.710938 Z M 194.148438 136.695312 C 190.789062 135.835938 185.398438 144.976562 185.398438 150.601562 C 185.398438 153.570312 186.335938 155.679688 188.914062 156.382812 C 190.164062 156.773438 191.882812 156.460938 193.992188 150.210938 C 194.125 150.230469 194.253906 150.253906 194.382812 150.289062 C 194.773438 152.945312 197.898438 158.726562 200.242188 159.351562 C 202.429688 160.054688 203.835938 158.882812 203.835938 156.539062 C 203.835938 154.351562 197.976562 137.710938 194.148438 136.71875 Z M 177.351562 110.835938 C 168.289062 109.039062 163.757812 114.117188 163.835938 122.398438 C 162.875 129.125 167.332031 135.433594 173.992188 136.773438 C 177.523438 137.746094 181.308594 136.886719 184.070312 134.484375 C 186.835938 132.078125 188.214844 128.453125 187.742188 124.820312 C 188.539062 118.136719 183.972656 111.996094 177.34375 110.835938 Z M 177.351562 110.835938 C 168.289062 109.039062 163.757812 114.117188 163.835938 122.398438 C 162.875 129.125 167.332031 135.433594 173.992188 136.773438 C 177.523438 137.746094 181.308594 136.886719 184.070312 134.484375 C 186.835938 132.078125 188.214844 128.453125 187.742188 124.820312 C 188.539062 118.136719 183.972656 111.996094 177.34375 110.835938 Z M 194.148438 136.695312 C 190.789062 135.835938 185.398438 144.976562 185.398438 150.601562 C 185.398438 153.570312 186.335938 155.679688 188.914062 156.382812 C 190.164062 156.773438 191.882812 156.460938 193.992188 150.210938 C 194.125 150.230469 194.253906 150.253906 194.382812 150.289062 C 194.773438 152.945312 197.898438 158.726562 200.242188 159.351562 C 202.429688 160.054688 203.835938 158.882812 203.835938 156.539062 C 203.835938 154.351562 197.976562 137.710938 194.148438 136.71875 Z M 211.335938 117.710938 C 208.441406 117.285156 205.511719 118.191406 203.371094 120.183594 C 201.226562 122.171875 200.105469 125.027344 200.320312 127.945312 C 200.277344 136.839844 206.527344 144.527344 215.242188 146.304688 C 219.148438 147.242188 224.070312 144.507812 224.148438 132.945312 C 224.203125 125.410156 218.769531 118.949219 211.335938 117.710938 Z M 211.335938 117.710938 C 208.441406 117.285156 205.511719 118.191406 203.371094 120.183594 C 201.226562 122.171875 200.105469 125.027344 200.320312 127.945312 C 200.277344 136.839844 206.527344 144.527344 215.242188 146.304688 C 219.148438 147.242188 224.070312 144.507812 224.148438 132.945312 C 224.203125 125.410156 218.769531 118.949219 211.335938 117.710938 Z M 194.148438 136.695312 C 190.789062 135.835938 185.398438 144.976562 185.398438 150.601562 C 185.398438 153.570312 186.335938 155.679688 188.914062 156.382812 C 190.164062 156.773438 191.882812 156.460938 193.992188 150.210938 C 194.125 150.230469 194.253906 150.253906 194.382812 150.289062 C 194.773438 152.945312 197.898438 158.726562 200.242188 159.351562 C 202.429688 160.054688 203.835938 158.882812 203.835938 156.539062 C 203.835938 154.351562 197.976562 137.710938 194.148438 136.71875 Z M 177.351562 110.835938 C 168.289062 109.039062 163.757812 114.117188 163.835938 122.398438 C 162.875 129.125 167.332031 135.433594 173.992188 136.773438 C 177.523438 137.746094 181.308594 136.886719 184.070312 134.484375 C 186.835938 132.078125 188.214844 128.453125 187.742188 124.820312 C 188.539062 118.136719 183.972656 111.996094 177.34375 110.835938 Z M 239.070312 173.648438 C 246.449219 168.757812 254.996094 165.925781 263.835938 165.445312 C 267.976562 163.335938 270.574219 159.074219 270.554688 154.429688 C 270.632812 149.117188 265.632812 147.710938 266.023438 145.289062 C 267.273438 136.382812 265.554688 130.679688 257.820312 135.601562 C 249.539062 140.367188 251.492188 146.226562 245.085938 148.726562 C 243.289062 149.507812 241.414062 150.132812 239.539062 150.757812 C 239.117188 144.863281 239.863281 138.945312 241.726562 133.335938 C 245.652344 124.375 247.621094 114.679688 247.507812 104.898438 C 247.976562 75.054688 215.085938 64.039062 194.148438 58.726562 C 159.226562 51.695312 140.476562 74.976562 140.789062 96.695312 C 140.871094 100.027344 141.589844 103.316406 142.898438 106.382812 C 144.226562 109.976562 146.257812 114.039062 149.304688 120.992188 C 149.382812 124.507812 149.460938 128.101562 149.460938 131.695312 C 135.945312 129.429688 139.226562 124.507812 131.023438 124.195312 C 126.726562 124.195312 122.507812 129.820312 123.679688 137.085938 C 123.679688 138.101562 118.210938 143.023438 118.289062 147.242188 C 118.367188 152.476562 124.460938 151.851562 128.445312 150.679688 C 130.242188 150.132812 132.351562 148.648438 134.304688 148.179688 C 140.945312 146.617188 150.867188 153.960938 158.289062 157.085938 C 158.640625 158.410156 158.828125 159.777344 158.835938 161.148438 C 158.835938 168.023438 145.945312 170.679688 141.335938 171.382812 C 138.175781 170.75 134.941406 170.566406 131.726562 170.835938 C 127.195312 171.773438 122.273438 175.210938 123.367188 179.898438 C 123.992188 182.867188 129.226562 185.210938 130.398438 185.992188 C 131.335938 186.617188 130.554688 191.617188 130.554688 193.492188 C 130.46875 195.398438 131.414062 197.207031 133.03125 198.222656 C 134.644531 199.242188 136.683594 199.316406 138.367188 198.414062 C 145.476562 196.148438 143.601562 190.914062 152.507812 188.414062 C 158.179688 186.976562 163.953125 185.957031 169.773438 185.367188 C 176.460938 193.363281 184.804688 199.8125 194.226562 204.273438 C 202.078125 207.074219 210.820312 205.628906 217.351562 200.445312 C 217.351562 200.601562 231.023438 210.367188 235.945312 213.023438 C 240.867188 215.679688 243.914062 224.273438 249.539062 223.960938 C 258.679688 223.023438 255.085938 211.851562 257.507812 210.054688 C 261.074219 206.90625 263.628906 202.777344 264.851562 198.179688 C 265.398438 195.054688 263.992188 190.835938 259.695312 192.007812 C 254.382812 192.320312 249.226562 197.632812 244.851562 195.289062 C 240.632812 193.023438 229.460938 185.054688 229.460938 184.976562 L 229.460938 177.789062 C 232.664062 176.5625 235.867188 175.210938 239.0625 173.648438 Z M 248.835938 154.664062 C 254.695312 151.773438 254.382812 145.132812 258.210938 143.804688 C 259.539062 143.257812 261.335938 143.101562 261.257812 145.367188 C 261.257812 147.242188 260.398438 149.507812 260.398438 150.601562 C 260.398438 152.710938 264.148438 153.179688 264.148438 155.289062 C 263.964844 157.253906 262.652344 158.933594 260.789062 159.585938 C 259.773438 159.976562 255.164062 158.257812 252.273438 159.976562 C 245.214844 163.917969 237.714844 167.011719 229.929688 169.195312 C 231.023438 164.351562 234.304688 162.242188 236.257812 158.960938 C 240.554688 157.863281 244.761719 156.4375 248.835938 154.6875 Z M 140.867188 141.617188 C 136.644531 139.792969 131.734375 140.828125 128.601562 144.195312 C 127.90625 144.554688 127.074219 144.519531 126.417969 144.101562 C 125.757812 143.679688 125.371094 142.945312 125.398438 142.164062 C 125.320312 140.132812 130.554688 137.945312 129.382812 135.210938 C 128.289062 133.023438 130.242188 128.882812 132.273438 129.585938 C 133.835938 130.289062 134.304688 132.789062 138.835938 134.664062 C 141.179688 135.679688 147.664062 138.101562 152.976562 140.914062 C 154.890625 143.242188 156.207031 146.003906 156.804688 148.960938 C 151.726562 146.035156 146.390625 143.578125 140.867188 141.617188 Z M 149.695312 181.617188 C 141.257812 184.742188 142.742188 191.070312 138.210938 190.757812 C 136.804688 190.757812 136.179688 188.414062 136.804688 184.351562 C 137.039062 182.789062 132.117188 181.070312 132.273438 179.117188 C 132.195312 177.789062 133.132812 176.851562 134.851562 176.695312 C 137.351562 176.460938 140.007812 178.960938 144.148438 177.398438 C 149.429688 175.378906 154.863281 173.789062 160.398438 172.632812 C 161.648438 174.429688 162.976562 176.226562 164.304688 178.023438 C 159.355469 178.878906 154.476562 180.082031 149.695312 181.617188 Z M 221.023438 186.851562 C 209.460938 199.507812 203.367188 199.742188 194.148438 196.617188 C 182.785156 190.097656 173.269531 180.796875 166.492188 169.585938 C 166.699219 162.421875 165.75 155.273438 163.679688 148.414062 C 163.757812 148.335938 163.914062 148.257812 163.992188 148.101562 L 169.148438 151.851562 C 170.324219 155.773438 170.796875 159.875 170.554688 163.960938 C 174.601562 174.402344 183.351562 182.3125 194.148438 185.289062 C 201.414062 187.945312 217.429688 187.789062 217.507812 172.398438 C 217.507812 167.632812 218.445312 164.195312 223.523438 164.273438 C 221.671875 171.652344 220.832031 179.246094 221.023438 186.851562 Z M 173.132812 163.179688 L 173.132812 159.273438 C 173.757812 159.664062 174.382812 159.976562 175.007812 160.367188 C 175.085938 161.851562 175.085938 163.257812 175.085938 164.742188 C 174.382812 164.195312 173.757812 163.648438 173.132812 163.179688 Z M 176.101562 165.601562 C 176.101562 164.039062 176.023438 162.554688 176.023438 160.992188 L 178.601562 162.398438 L 178.601562 167.085938 C 177.742188 166.539062 176.960938 166.070312 176.101562 165.625 Z M 178.445312 173.023438 L 176.101562 170.679688 L 176.101562 167.632812 C 176.882812 168.101562 177.664062 168.492188 178.367188 168.882812 C 178.445312 170.3125 178.445312 171.695312 178.445312 173.023438 Z M 183.132812 171.695312 L 183.132812 176.929688 C 182.195312 176.304688 181.179688 175.679688 180.242188 175.054688 C 180.164062 173.414062 180.164062 171.851562 180.164062 170.289062 C 181.179688 170.757812 182.117188 171.226562 183.132812 171.695312 Z M 180.320312 168.648438 L 180.320312 163.101562 L 183.367188 164.507812 L 183.367188 170.132812 C 182.351562 169.585938 181.335938 169.117188 180.320312 168.648438 Z M 184.851562 170.835938 C 184.851562 169.039062 184.851562 167.242188 184.773438 165.367188 C 185.945312 165.914062 187.117188 166.382812 188.210938 166.929688 L 188.210938 172.710938 C 187.117188 172.085938 185.9375 171.460938 184.851562 170.835938 Z M 188.210938 174.585938 L 188.210938 180.367188 C 187.117188 179.742188 185.945312 179.117188 184.851562 178.492188 L 184.851562 172.65625 C 185.9375 173.257812 187.117188 173.960938 188.210938 174.585938 Z M 193.679688 176.929688 L 193.679688 182.554688 C 192.429688 182.164062 191.179688 181.773438 189.929688 181.304688 L 189.929688 175.78125 Z M 189.929688 173.804688 L 189.929688 167.554688 C 191.101562 167.945312 192.273438 168.335938 193.445312 168.648438 L 193.445312 175.132812 C 192.273438 174.664062 191.101562 174.273438 189.929688 173.804688 Z M 198.523438 176.773438 C 197.351562 176.460938 196.179688 176.226562 195.007812 175.914062 L 195.007812 169.429688 C 196.179688 169.742188 197.351562 170.132812 198.523438 170.523438 Z M 198.914062 178.648438 L 198.914062 184.273438 C 197.664062 183.882812 196.492188 183.492188 195.242188 183.101562 L 195.242188 177.476562 C 196.492188 177.867188 197.65625 178.257812 198.914062 178.648438 Z M 203.601562 176.695312 C 202.507812 176.695312 201.335938 176.617188 200.242188 176.539062 L 200.242188 170.757812 L 203.601562 171.226562 Z M 203.992188 178.726562 L 203.992188 184.742188 C 202.820312 184.664062 201.726562 184.585938 200.554688 184.429688 C 200.554688 182.476562 200.554688 180.523438 200.632812 178.570312 C 201.726562 178.648438 202.898438 178.648438 203.992188 178.726562 Z M 208.289062 177.085938 C 207.273438 177.007812 206.335938 176.851562 205.320312 176.773438 L 205.320312 171.226562 C 206.335938 171.304688 207.273438 171.460938 208.289062 171.539062 Z M 208.679688 179.117188 L 208.679688 184.039062 C 207.664062 184.117188 206.726562 184.117188 205.710938 184.195312 L 205.710938 178.804688 C 206.726562 178.90625 207.742188 179.039062 208.679688 179.117188 Z M 212.507812 176.304688 C 211.648438 176.382812 210.789062 176.382812 209.929688 176.460938 C 210.007812 174.820312 210.007812 173.179688 210.007812 171.539062 L 212.507812 171.539062 Z M 212.742188 178.726562 L 212.742188 181.929688 C 211.960938 182.320312 211.179688 182.710938 210.398438 183.023438 L 210.398438 178.726562 Z M 213.679688 175.445312 L 213.679688 171.226562 C 214.304688 171.148438 214.929688 171.148438 215.554688 171.070312 L 215.554688 175.132812 C 214.9375 175.273438 214.308594 175.378906 213.679688 175.445312 Z M 243.679688 202.242188 C 249.226562 204.039062 251.101562 201.617188 253.835938 201.226562 C 254.929688 201.070312 256.648438 200.757812 256.570312 202.398438 C 256.492188 206.851562 250.710938 207.085938 251.023438 209.039062 C 251.492188 211.539062 250.867188 215.132812 248.835938 215.367188 C 244.617188 215.601562 246.882812 212.085938 241.335938 208.804688 C 235.253906 205.070312 229.386719 201 223.757812 196.617188 L 226.335938 191.460938 C 231.882812 195.417969 237.675781 199.019531 243.679688 202.242188 Z M 218.679688 159.585938 C 214.148438 159.742188 214.148438 159.742188 212.195312 165.601562 C 211.101562 170.445312 198.679688 167.789062 194.148438 166.304688 C 182.742188 162.710938 176.023438 159.351562 175.007812 153.570312 C 172.507812 140.835938 155.242188 145.210938 155.085938 130.367188 C 155.753906 126.378906 156.933594 122.492188 158.601562 118.804688 C 159.449219 115.699219 159.84375 112.492188 159.773438 109.273438 C 158.910156 102.542969 157.175781 95.949219 154.617188 89.664062 C 153.371094 91.757812 152.851562 94.199219 153.132812 96.617188 C 153.109375 98.648438 153.371094 100.675781 153.914062 102.632812 C 155.003906 105.574219 155.6875 108.648438 155.945312 111.773438 C 155.972656 113.820312 155.765625 115.867188 155.320312 117.867188 C 151.304688 111.296875 148.96875 103.835938 148.523438 96.148438 C 148.289062 76.382812 167.507812 60.757812 194.148438 66.382812 C 215.007812 71.148438 241.257812 84.039062 240.867188 109.195312 C 240.066406 117.992188 237.460938 126.53125 233.210938 134.273438 C 232.824219 132.578125 232.589844 130.851562 232.507812 129.117188 C 234.085938 122.113281 234.949219 114.96875 235.085938 107.789062 C 234.882812 104.847656 234.25 101.953125 233.210938 99.195312 C 230.542969 106.984375 228.992188 115.113281 228.601562 123.335938 C 228.550781 126.851562 228.890625 130.363281 229.617188 133.804688 C 231.101562 140.679688 233.601562 142.242188 233.601562 146.148438 C 233.445312 158.023438 224.070312 159.375 218.679688 159.585938 Z M 211.335938 117.710938 C 208.441406 117.285156 205.511719 118.191406 203.371094 120.183594 C 201.226562 122.171875 200.105469 125.027344 200.320312 127.945312 C 200.277344 136.839844 206.527344 144.527344 215.242188 146.304688 C 219.148438 147.242188 224.070312 144.507812 224.148438 132.945312 C 224.203125 125.410156 218.769531 118.949219 211.335938 117.710938 Z M 194.148438 136.695312 C 190.789062 135.835938 185.398438 144.976562 185.398438 150.601562 C 185.398438 153.570312 186.335938 155.679688 188.914062 156.382812 C 190.164062 156.773438 191.882812 156.460938 193.992188 150.210938 C 194.125 150.230469 194.253906 150.253906 194.382812 150.289062 C 194.773438 152.945312 197.898438 158.726562 200.242188 159.351562 C 202.429688 160.054688 203.835938 158.882812 203.835938 156.539062 C 203.835938 154.351562 197.976562 137.710938 194.148438 136.71875 Z M 177.351562 110.835938 C 168.289062 109.039062 163.757812 114.117188 163.835938 122.398438 C 162.875 129.125 167.332031 135.433594 173.992188 136.773438 C 177.523438 137.746094 181.308594 136.886719 184.070312 134.484375 C 186.835938 132.078125 188.214844 128.453125 187.742188 124.820312 C 188.539062 118.136719 183.972656 111.996094 177.34375 110.835938 Z M 177.351562 110.835938 C 168.289062 109.039062 163.757812 114.117188 163.835938 122.398438 C 162.875 129.125 167.332031 135.433594 173.992188 136.773438 C 177.523438 137.746094 181.308594 136.886719 184.070312 134.484375 C 186.835938 132.078125 188.214844 128.453125 187.742188 124.820312 C 188.539062 118.136719 183.972656 111.996094 177.34375 110.835938 Z M 194.148438 136.695312 C 190.789062 135.835938 185.398438 144.976562 185.398438 150.601562 C 185.398438 153.570312 186.335938 155.679688 188.914062 156.382812 C 190.164062 156.773438 191.882812 156.460938 193.992188 150.210938 C 194.125 150.230469 194.253906 150.253906 194.382812 150.289062 C 194.773438 152.945312 197.898438 158.726562 200.242188 159.351562 C 202.429688 160.054688 203.835938 158.882812 203.835938 156.539062 C 203.835938 154.351562 197.976562 137.710938 194.148438 136.71875 Z M 211.335938 117.710938 C 208.441406 117.285156 205.511719 118.191406 203.371094 120.183594 C 201.226562 122.171875 200.105469 125.027344 200.320312 127.945312 C 200.277344 136.839844 206.527344 144.527344 215.242188 146.304688 C 219.148438 147.242188 224.070312 144.507812 224.148438 132.945312 C 224.203125 125.410156 218.769531 118.949219 211.335938 117.710938 Z M 211.335938 117.710938 C 208.441406 117.285156 205.511719 118.191406 203.371094 120.183594 C 201.226562 122.171875 200.105469 125.027344 200.320312 127.945312 C 200.277344 136.839844 206.527344 144.527344 215.242188 146.304688 C 219.148438 147.242188 224.070312 144.507812 224.148438 132.945312 C 224.203125 125.410156 218.769531 118.949219 211.335938 117.710938 Z M 194.148438 136.695312 C 190.789062 135.835938 185.398438 144.976562 185.398438 150.601562 C 185.398438 153.570312 186.335938 155.679688 188.914062 156.382812 C 190.164062 156.773438 191.882812 156.460938 193.992188 150.210938 C 194.125 150.230469 194.253906 150.253906 194.382812 150.289062 C 194.773438 152.945312 197.898438 158.726562 200.242188 159.351562 C 202.429688 160.054688 203.835938 158.882812 203.835938 156.539062 C 203.835938 154.351562 197.976562 137.710938 194.148438 136.71875 Z M 177.351562 110.835938 C 168.289062 109.039062 163.757812 114.117188 163.835938 122.398438 C 162.875 129.125 167.332031 135.433594 173.992188 136.773438 C 177.523438 137.746094 181.308594 136.886719 184.070312 134.484375 C 186.835938 132.078125 188.214844 128.453125 187.742188 124.820312 C 188.539062 118.136719 183.972656 111.996094 177.34375 110.835938 Z M 177.351562 110.835938 "/>
<use xlink:href="#surface23283" mask="url(#mask0)"/>
<path style=" stroke:none;fill-rule:evenodd;fill:url(#linear1);" d="M 29.71875 40.101562 L 43.710938 40.101562 L 43.710938 356.914062 L 29.71875 356.914062 Z M 29.71875 40.101562 "/>
<path style=" stroke:none;fill-rule:evenodd;fill:url(#radial0);" d="M 49.492188 30.867188 C 49.492188 37.921875 43.773438 43.640625 36.71875 43.640625 C 29.664062 43.640625 23.945312 37.921875 23.945312 30.867188 C 23.945312 23.8125 29.664062 18.09375 36.71875 18.09375 C 43.773438 18.09375 49.492188 23.8125 49.492188 30.867188 Z M 49.492188 30.867188 "/>
</g>
</svg>
